<svg width="0" height="0" class="hidden">
  <symbol id="case-check-complete" xmlns="http://www.w3.org/2000/svg" viewBox="0 0 29.666 33.22">
    <path id="Tracé_234" d="M2.292,5.841H23.484V27.033H2.292ZM0,29.325H25.774V3.551H0Z" transform="translate(0 3.895)" fill="#c3cde8"></path>
    <path id="Tracé_235" d="M26.731,0,8.832,17.755,2.675,14.031l6.691,13.46Z" transform="translate(2.934 0)" fill="#002f66"></path>
  </symbol>
  <symbol xmlns="http://www.w3.org/2000/svg" viewBox="0 0 24.056 27.491" id="check">
    <path id="Tracé_235" d="M26.731,0,8.832,17.755,2.675,14.031l6.691,13.46Z" transform="translate(-2.675 0)" fill="#002f66"></path>
  </symbol>
  <symbol id="icon-cookie" xmlns="http://www.w3.org/2000/svg" xmlns:xlink="http://www.w3.org/1999/xlink" viewBox="0 0 86 63.734">
    <defs>
      <clipPath id="clip-path">
        <rect id="Rectangle_78" width="86" height="63.735" fill="none"></rect>
      </clipPath>
      <clipPath id="clip-path-2">
        <rect id="Rectangle_77" width="86" height="63.734" fill="none"></rect>
      </clipPath>
      <clipPath id="clip-path-3">
        <rect id="Rectangle_75" width="55.024" height="61.164" fill="none"></rect>
      </clipPath>
      <clipPath id="clip-path-4">
        <rect id="Rectangle_76" width="9.803" height="15.377" fill="none"></rect>
      </clipPath>
    </defs>
    <g id="Groupe_151" clip-path="url(#clip-path)">
      <g id="Groupe_150" transform="translate(0 0)">
        <g id="Groupe_149" clip-path="url(#clip-path-2)">
          <path id="Tracé_329" d="M3.679,51.963A1.839,1.839,0,1,1,1.84,50.124a1.839,1.839,0,0,1,1.839,1.839" transform="translate(0 -17.858)" fill="#ffb5d9"></path>
          <path id="Tracé_330" d="M131.562,51.963a1.839,1.839,0,1,1-1.839-1.839,1.839,1.839,0,0,1,1.839,1.839" transform="translate(-45.562 -17.858)" fill="#ffb5d9"></path>
          <path id="Tracé_331" d="M80.247,22.27l-1.576.45-.077.945a9.88,9.88,0,0,1-.881.569,8.689,8.689,0,0,1-8.254-.09l-1.576.45.334.555a7.924,7.924,0,0,1-7.974.907,7.284,7.284,0,0,1-4.377-5.492c-2.91.983-5.955,1.068-8.414-1.417-2.742-2.77-2.3-6-.724-8.887a5.808,5.808,0,0,1-4.706-3.649,6.523,6.523,0,0,1-.344-3.318A31.272,31.272,0,1,0,80.247,22.27" transform="translate(-7.001 -1.174)" fill="#bc9350"></path>
          <path id="Tracé_332" d="M79.757,33.878a31.156,31.156,0,0,1-7.533,20.354c-.054.064-.113.127-.171.191A31.271,31.271,0,0,1,17.2,33.878c0-.3,0-.6.014-.9A31.334,31.334,0,0,1,39.229,3.991a6.539,6.539,0,0,0,.346,3.317A5.29,5.29,0,0,0,41.39,9.757a7.163,7.163,0,0,0,2.888,1.2c-1.581,2.884-2.02,6.119.722,8.889,2.459,2.483,5.508,2.4,8.416,1.415a7.281,7.281,0,0,0,4.377,5.494c3.381,1.513,6.757.406,9.216-1.912a8.692,8.692,0,0,0,8.255.088A12.036,12.036,0,0,0,77.8,22.969a31.21,31.21,0,0,1,1.956,10.909" transform="translate(-6.128 -1.422)" fill="#cea65f"></path>
          <path id="Tracé_333" d="M38.343,59.5a6.423,6.423,0,1,1-6.424-6.424A6.424,6.424,0,0,1,38.343,59.5" transform="translate(-9.084 -18.911)" fill="#9e6235"></path>
          <path id="Tracé_334" d="M53.54,76.754A3.239,3.239,0,1,1,50.3,73.515a3.238,3.238,0,0,1,3.239,3.239" transform="translate(-16.768 -26.192)" fill="#9e6235"></path>
          <path id="Tracé_335" d="M56.448,51.616a2.641,2.641,0,1,1-2.641-2.641,2.641,2.641,0,0,1,2.641,2.641" transform="translate(-18.229 -17.449)" fill="#9e6235"></path>
          <path id="Tracé_336" d="M93.973,59.761a2.753,2.753,0,1,1-2.753-2.753,2.753,2.753,0,0,1,2.753,2.753" transform="translate(-31.519 -20.311)" fill="#9e6235"></path>
          <path id="Tracé_337" d="M102.523,64.677a1.619,1.619,0,1,1-1.62-1.62,1.62,1.62,0,0,1,1.62,1.62" transform="translate(-35.373 -22.466)" fill="#9e6235"></path>
          <g id="Groupe_145" transform="translate(11.073 2.571)">
            <g id="Groupe_144">
              <g id="Groupe_143" clip-path="url(#clip-path-3)">
                <path id="Tracé_338" d="M43.03,52.3A31.515,31.515,0,0,1,29.2,22.922,30.664,30.664,0,0,1,39.217,4.091c0-.032.006-.065.012-.1a31.281,31.281,0,1,0,33,50.24c-9.245,4.2-20.667,3.7-29.194-1.932" transform="translate(-17.201 -3.994)" fill="#d9d9d9"></path>
              </g>
            </g>
          </g>
          <g id="Groupe_148" transform="translate(60.629 23.329)" opacity="0.42">
            <g id="Groupe_147">
              <g id="Groupe_146" clip-path="url(#clip-path-4)">
                <path id="Tracé_339" d="M103,36.241q-.155.1-.309.182a8.738,8.738,0,0,1-8.123-.012,19.313,19.313,0,0,0-.329,5.343c.4,5.636,2.9,10.05,5.578,9.859s4.519-4.917,4.115-10.553A19.715,19.715,0,0,0,103,36.241" transform="translate(-94.185 -36.241)" fill="#9c9b9b"></path>
              </g>
            </g>
          </g>
          <path id="Tracé_340" d="M47.012,9.757a3.856,3.856,0,0,1-.883,1.6,4.027,4.027,0,0,1-4.635.825,4.67,4.67,0,0,0-1.23-.561c-1.322-.229-2.24,1.3-3.488,1.786a2.892,2.892,0,0,1-3.439-1.459,3.45,3.45,0,0,1-.357-1.132A31.3,31.3,0,0,1,44.85,3.991,6.533,6.533,0,0,0,45.2,7.308a5.285,5.285,0,0,0,1.815,2.449" transform="translate(-11.75 -1.422)" fill="#9e6235"></path>
          <path id="Tracé_341" d="M21.3,38.622a9.97,9.97,0,0,1-4.079,2.9,31.087,31.087,0,0,1,3.513-13.539,7,7,0,0,1,2.391,4.166A8.214,8.214,0,0,1,21.3,38.622" transform="translate(-6.137 -9.971)" fill="#9e6235"></path>
          <path id="Tracé_342" d="M94.667,79.748a31.278,31.278,0,0,1-10.5,7.879,10.306,10.306,0,0,1-2.088-1.849,5.645,5.645,0,0,1-1.317-2.371,2.992,2.992,0,0,1,.527-2.586c.751-.883,2.049-1.122,2.849-1.961a20.8,20.8,0,0,0,1.371-2.274,4.1,4.1,0,0,1,3.864-1.469,6.262,6.262,0,0,1,3.669,2.152,11.335,11.335,0,0,1,1.625,2.478" transform="translate(-28.742 -26.747)" fill="#9e6235"></path>
          <path id="Tracé_343" d="M100.745,24.521a2.334,2.334,0,1,1-2.335-2.335,2.335,2.335,0,0,1,2.335,2.335" transform="translate(-34.23 -7.905)" fill="#cea65f"></path>
          <path id="Tracé_344" d="M91.937,19.233a1.4,1.4,0,1,1-1.4-1.4,1.4,1.4,0,0,1,1.4,1.4" transform="translate(-31.756 -6.353)" fill="#cea65f"></path>
          <path id="Tracé_345" d="M89.034,30.885a.847.847,0,1,1-.847-.847.847.847,0,0,1,.847.847" transform="translate(-31.117 -10.702)" fill="#cea65f"></path>
          <path id="Tracé_346" d="M72.707,5.106a2.234,2.234,0,1,1-2.234-2.234,2.234,2.234,0,0,1,2.234,2.234" transform="translate(-24.312 -1.024)" fill="#cea65f"></path>
          <path id="Tracé_347" d="M68.464,15.759a1.04,1.04,0,1,1-1.04-1.04,1.04,1.04,0,0,1,1.04,1.04" transform="translate(-23.651 -5.244)" fill="#cea65f"></path>
          <path id="Tracé_348" d="M84.078,1.54A1.541,1.541,0,1,1,82.536,0a1.541,1.541,0,0,1,1.542,1.54" transform="translate(-28.857 0)" fill="#cea65f"></path>
        </g>
      </g>
    </g>
  </symbol>
  <symbol id="icon-derniere-maj" xmlns="http://www.w3.org/2000/svg" xmlns:xlink="http://www.w3.org/1999/xlink" viewBox="0 0 45.667 45.218">
    <defs>
      <clipPath id="clip-path">
        <rect id="Rectangle_2" width="45.667" height="45.218" fill="none"></rect>
      </clipPath>
    </defs>
    <g id="Groupe_5" transform="translate(0 0)">
      <g id="Groupe_4" transform="translate(0 0)" clip-path="url(#clip-path)">
        <path id="Tracé_12" d="M25.911,13.9A11.756,11.756,0,1,1,14.038,25.655,11.8,11.8,0,0,1,25.911,13.9M30.9,25.655a4.986,4.986,0,1,0-4.986,4.937A4.941,4.941,0,0,0,30.9,25.655" transform="translate(-3.037 -3.007)" fill="#232b3f"></path>
        <path id="Tracé_13" d="M45.667,20.062v5.094a2.37,2.37,0,0,1-2.375,2.351H40.6A2.385,2.385,0,0,0,38.386,29a2.41,2.41,0,0,0,.475,2.586l1.9,1.881a2.257,2.257,0,0,1,0,3.291l-3.641,3.6a2.311,2.311,0,0,1-3.324,0l-1.9-1.881a2.325,2.325,0,0,0-2.611-.47,2.4,2.4,0,0,0-1.5,2.194v2.664a2.369,2.369,0,0,1-2.375,2.351H20.262a2.369,2.369,0,0,1-2.375-2.351V40.2a2.361,2.361,0,0,0-1.5-2.194,2.471,2.471,0,0,0-2.612.47l-1.9,1.881a2.312,2.312,0,0,1-3.325,0l-3.64-3.6a2.257,2.257,0,0,1,0-3.291l1.9-1.881A2.27,2.27,0,0,0,7.282,29a2.425,2.425,0,0,0-2.216-1.489H2.375A2.37,2.37,0,0,1,0,25.156V20.062a2.37,2.37,0,0,1,2.375-2.351H5.066a2.385,2.385,0,0,0,2.216-1.489,2.412,2.412,0,0,0-.475-2.586l-1.9-1.881a2.257,2.257,0,0,1,0-3.291l3.64-3.6a2.312,2.312,0,0,1,3.325,0l1.9,1.881a2.327,2.327,0,0,0,2.612.47,2.4,2.4,0,0,0,1.5-2.194V2.351A2.369,2.369,0,0,1,20.262,0h5.144A2.37,2.37,0,0,1,27.78,2.351V5.015a2.361,2.361,0,0,0,1.5,2.194A2.469,2.469,0,0,0,31.9,6.74l1.9-1.881a2.311,2.311,0,0,1,3.324,0l3.641,3.6a2.257,2.257,0,0,1,0,3.291l-1.9,1.881a2.27,2.27,0,0,0-.475,2.586A2.424,2.424,0,0,0,40.6,17.711h2.69a2.48,2.48,0,0,1,2.375,2.351M34.745,22.648A11.872,11.872,0,1,0,22.874,34.4,11.8,11.8,0,0,0,34.745,22.648" transform="translate(0 0)" fill="#313a52"></path>
      </g>
    </g>
  </symbol>
  <symbol xmlns="http://www.w3.org/2000/svg" xmlns:xlink="http://www.w3.org/1999/xlink" viewBox="0 0 56.353 54.524" id="icon-donnees-collectees">
    <defs>
      <clipPath id="clip-path">
        <rect id="Rectangle_51" width="56.353" height="54.524" transform="translate(0 0.001)" fill="none"></rect>
      </clipPath>
    </defs>
    <g id="Groupe_128" transform="translate(0 0)">
      <g id="Groupe_127" clip-path="url(#clip-path)">
        <path id="Tracé_289" d="M10.419,7.587v7.587H2.832V7.587A3.911,3.911,0,0,1,3.944,4.855,3.744,3.744,0,0,1,6.676,3.743a3.962,3.962,0,0,1,3.743,3.844" fill="#bec3c7"></path>
        <path id="Tracé_290" d="M2.528,39.25a2.529,2.529,0,1,1,0,5.058A2.5,2.5,0,0,1,0,41.779,2.569,2.569,0,0,1,2.528,39.25" fill="#74829c"></path>
        <path id="Tracé_291" d="M53.108,6.373A2.53,2.53,0,1,1,50.579,8.9a2.57,2.57,0,0,1,2.529-2.529" fill="#74829c"></path>
        <path id="Tracé_292" d="M45.521,48.051h5.766c0,4.248-2.832,6.474-6.171,6.474H17.5a6.235,6.235,0,0,0,5.969-6.474H45.521Z" fill="#bec3c7"></path>
        <path id="Tracé_293" d="M45.521,9a5.181,5.181,0,0,0-5.159-5.159H6.271a3.843,3.843,0,0,1,3.845,3.845V48.051a6.3,6.3,0,0,0,5.968,6.473H17.4a6.233,6.233,0,0,0,5.969-6.473H45.419V9Z" fill="#ecf0f1"></path>
        <path id="Tracé_294" d="M56.345,20.637l-8.7-1.72-2.124.4-6.475,1.316c0,13.049-.4,11.633,6.475,18.613h4.349c6.98-7.283,6.474-5.261,6.474-18.613" fill="#80af52"></path>
        <path id="Tracé_295" d="M27.313,8.9a6.26,6.26,0,0,1,6.27,6.373,6.322,6.322,0,1,1-12.644,0A6.48,6.48,0,0,1,27.313,8.9" fill="#f14742"></path>
        <path id="Tracé_296" d="M51.9,41.779a1.315,1.315,0,1,1-1.316,1.314A1.274,1.274,0,0,1,51.9,41.779" fill="#74829c"></path>
        <path id="Tracé_297" d="M50.073,22.761a1.315,1.315,0,1,1-1.316,1.315,1.415,1.415,0,0,1,1.316-1.315" fill="#70993f"></path>
        <path id="Tracé_298" d="M45.521,0a1.338,1.338,0,0,1,1.314,1.316,1.314,1.314,0,0,1-2.629,0A1.5,1.5,0,0,1,45.521,0" fill="#74829c"></path>
        <path id="Tracé_299" d="M5.058,51.9A1.315,1.315,0,1,1,3.743,53.21,1.407,1.407,0,0,1,5.058,51.9" fill="#74829c"></path>
        <path id="Tracé_300" d="M2.528,25.29a1.315,1.315,0,1,1,0,2.63A1.338,1.338,0,0,1,1.214,26.6,1.5,1.5,0,0,1,2.528,25.29" fill="#74829c"></path>
        <path id="Tracé_301" d="M29.842,13.96H28.527V12.645a1.325,1.325,0,0,0-1.214-1.315A1.34,1.34,0,0,0,26,12.645V13.96H24.683a1.315,1.315,0,1,0,0,2.63H26v1.315a1.341,1.341,0,0,0,1.316,1.316,1.255,1.255,0,0,0,1.214-1.316V16.59h1.315a1.338,1.338,0,0,0,1.314-1.315,1.274,1.274,0,0,0-1.314-1.315" fill="#fff"></path>
        <path id="Tracé_302" d="M46.938,34.192a1.235,1.235,0,0,1-.911-.4l-2.732-2.732a1.287,1.287,0,0,1,1.821-1.82l1.922,1.922L51.691,26.5a1.287,1.287,0,0,1,1.821,1.82l-5.563,5.564a2.265,2.265,0,0,1-1.011.3" fill="#fff"></path>
        <path id="Tracé_303" d="M46.33,25.29H43.8a1.315,1.315,0,1,1,0-2.63H46.33a1.339,1.339,0,0,1,1.315,1.315A1.407,1.407,0,0,1,46.33,25.29" fill="#70993f"></path>
        <path id="Tracé_304" d="M32.876,26.606h-17.7a1.316,1.316,0,1,1,0-2.631h17.7a1.316,1.316,0,0,1,0,2.631" fill="#65b2fe"></path>
        <path id="Tracé_305" d="M34.191,30.348H15.173a1.315,1.315,0,1,1,0-2.63H34.191a1.315,1.315,0,0,1,0,2.63" fill="#65b2fe"></path>
        <path id="Tracé_306" d="M35.4,34.192H15.173a1.315,1.315,0,1,1,0-2.63H35.4a1.315,1.315,0,1,1,0,2.63" fill="#65b2fe"></path>
        <path id="Tracé_307" d="M36.721,37.935H15.174a1.315,1.315,0,0,1,0-2.63H36.721a1.315,1.315,0,0,1,0,2.63" fill="#65b2fe"></path>
        <path id="Tracé_308" d="M40.463,41.779H15.174a1.316,1.316,0,1,1,0-2.631H40.463a1.316,1.316,0,0,1,0,2.631" fill="#65b2fe"></path>
        <path id="Tracé_309" d="M40.463,45.522H15.174a1.315,1.315,0,1,1,0-2.63H40.463a1.339,1.339,0,0,1,1.315,1.316,1.275,1.275,0,0,1-1.315,1.314" fill="#65b2fe"></path>
      </g>
    </g>
  </symbol>
  <symbol id="icon-donnees-protegees" xmlns="http://www.w3.org/2000/svg" xmlns:xlink="http://www.w3.org/1999/xlink" viewBox="0 0 69.319 69.198">
    <defs>
      <clipPath id="clip-path">
        <rect id="Rectangle_35" width="69.319" height="69.198" fill="none"></rect>
      </clipPath>
    </defs>
    <rect id="Rectangle_33" width="15.017" height="4.566" transform="translate(15.137 58.265)" fill="#3c3b3d"></rect>
    <rect id="Rectangle_34" width="15.017" height="4.566" transform="translate(43.61 58.265)" fill="#3c3b3d"></rect>
    <g id="Groupe_105" transform="translate(0 0)">
      <g id="Groupe_104" clip-path="url(#clip-path)">
        <path id="Tracé_190" d="M58.766,3.743H12.153A4.564,4.564,0,0,0,7.587,8.308V53.359a4.564,4.564,0,0,0,4.566,4.565H58.766a4.564,4.564,0,0,0,4.565-4.565V8.308a4.725,4.725,0,0,0-4.565-4.565" transform="translate(1.423 0.702)" fill="#74829c"></path>
        <path id="Tracé_191" d="M12.746,8.8V50.848H56.235V8.8Z" transform="translate(2.391 1.65)" fill="#d7deed"></path>
        <path id="Tracé_192" d="M2.283,0A2.281,2.281,0,0,1,4.565,2.283,2.114,2.114,0,0,1,2.283,4.445,2.209,2.209,0,0,1,0,2.161,2.18,2.18,0,0,1,2.283,0" transform="translate(0 -0.001)" fill="#57606f"></path>
        <path id="Tracé_193" d="M4.318,50.579a3,3,0,0,1,0,6.008,3,3,0,0,1,0-6.008" transform="translate(0.247 9.488)" fill="#57606f"></path>
        <path id="Tracé_194" d="M14.416,35.405V39.85H3.844V35.405H14.416Z" transform="translate(0.721 6.642)" fill="#3c3b3d"></path>
        <path id="Tracé_195" d="M14.416,13.858v4.566H3.844V13.858H14.416Z" transform="translate(0.721 2.599)" fill="#3c3b3d"></path>
        <path id="Tracé_196" d="M55.985,0a1.589,1.589,0,0,1,1.562,1.561,1.591,1.591,0,0,1-1.562,1.563,1.7,1.7,0,0,1-1.561-1.682A1.489,1.489,0,0,1,55.985,0" transform="translate(10.21 -0.001)" fill="#57606f"></path>
        <path id="Tracé_197" d="M24.323,55.638A1.562,1.562,0,1,1,22.761,57.2a1.589,1.589,0,0,1,1.562-1.561" transform="translate(4.27 10.438)" fill="#d7deed"></path>
        <path id="Tracé_198" d="M20.58,55.638a1.562,1.562,0,0,1,0,3.123,1.7,1.7,0,0,1-1.562-1.682,1.49,1.49,0,0,1,1.562-1.442" transform="translate(3.568 10.438)" fill="#d7deed"></path>
        <path id="Tracé_199" d="M2.877,8.8a1.562,1.562,0,1,1,0,3.123,1.562,1.562,0,1,1,0-3.123" transform="translate(0.247 1.651)" fill="#57606f"></path>
        <path id="Tracé_200" d="M2.877,44.206a1.562,1.562,0,1,1,0,3.123,1.562,1.562,0,1,1,0-3.123" transform="translate(0.247 8.293)" fill="#57606f"></path>
        <path id="Tracé_201" d="M30.7,21.446a1.589,1.589,0,0,1-1.562-1.561V15.319a1.562,1.562,0,1,1,3.123,0v4.566A1.781,1.781,0,0,1,30.7,21.446" transform="translate(5.466 2.58)" fill="#232b3f"></path>
        <path id="Tracé_202" d="M30.7,40.344a1.59,1.59,0,0,1-1.562-1.562V34.337a1.562,1.562,0,0,1,3.123,0V38.9A1.782,1.782,0,0,1,30.7,40.344" transform="translate(5.466 6.148)" fill="#232b3f"></path>
        <path id="Tracé_203" d="M36.053,23.357a1.47,1.47,0,0,1-1.082-.481,1.525,1.525,0,0,1,0-2.163l3.243-3.243a1.529,1.529,0,1,1,2.164,2.161l-3.245,3.245a1.469,1.469,0,0,1-1.081.481" transform="translate(6.476 3.192)" fill="#232b3f"></path>
        <path id="Tracé_204" d="M22.6,36.812a1.469,1.469,0,0,1-1.081-.481,1.522,1.522,0,0,1,0-2.163l3.243-3.243a1.529,1.529,0,1,1,2.163,2.161L23.68,36.331a1.472,1.472,0,0,1-1.082.481" transform="translate(3.952 5.717)" fill="#232b3f"></path>
        <path id="Tracé_205" d="M42.746,28.311H38.181a1.562,1.562,0,0,1,0-3.123h4.565a1.562,1.562,0,1,1,0,3.123" transform="translate(6.87 4.725)" fill="#232b3f"></path>
        <path id="Tracé_206" d="M23.83,28.311H19.265a1.562,1.562,0,1,1,0-3.123H23.83a1.591,1.591,0,0,1,1.562,1.563,1.781,1.781,0,0,1-1.562,1.561" transform="translate(3.321 4.725)" fill="#232b3f"></path>
        <path id="Tracé_207" d="M39.194,36.812a1.467,1.467,0,0,1-1.081-.481l-3.245-3.245a1.529,1.529,0,0,1,2.163-2.161l3.243,3.243a1.522,1.522,0,0,1,0,2.163,1.467,1.467,0,0,1-1.081.481" transform="translate(6.457 5.717)" fill="#232b3f"></path>
        <path id="Tracé_208" d="M25.74,23.357a1.472,1.472,0,0,1-1.082-.481l-3.243-3.245a1.529,1.529,0,0,1,2.163-2.161l3.243,3.243a1.523,1.523,0,0,1,0,2.163,1.172,1.172,0,0,1-1.081.481" transform="translate(3.933 3.192)" fill="#232b3f"></path>
        <path id="Tracé_209" d="M21.3,14.351H16.736a1.562,1.562,0,0,1,0-3.123H21.3a1.591,1.591,0,0,1,1.562,1.563A1.677,1.677,0,0,1,21.3,14.351" transform="translate(2.847 2.106)" fill="#afb9d2"></path>
        <path id="Tracé_210" d="M46.591,14.351H42.025a1.562,1.562,0,0,1,0-3.123h4.566a1.59,1.59,0,0,1,1.561,1.563,1.677,1.677,0,0,1-1.561,1.561" transform="translate(7.591 2.106)" fill="#afb9d2"></path>
        <path id="Tracé_211" d="M62.645,58.659H28.167a1.562,1.562,0,1,1,0-3.123h34.6A1.591,1.591,0,0,1,64.328,57.1a1.8,1.8,0,0,1-1.683,1.561" transform="translate(4.991 10.418)" fill="#d7deed"></path>
        <path id="Tracé_212" d="M30.923,23.975a3,3,0,1,1-3,3,2.973,2.973,0,0,1,3-3" transform="translate(5.238 4.497)" fill="#d8f2f1"></path>
        <path id="Tracé_213" d="M38.24,21.561a8.991,8.991,0,0,1,0,12.734,9.01,9.01,0,0,1-15.378-6.367A9,9,0,0,1,38.24,21.561m-3.364,6.367a3,3,0,1,0-3,3,2.974,2.974,0,0,0,3-3" transform="translate(4.289 3.548)" fill="#313a52"></path>
      </g>
    </g>
  </symbol>
  <symbol xmlns="http://www.w3.org/2000/svg" xmlns:xlink="http://www.w3.org/1999/xlink" viewBox="0 0 131.023 120.769" id="icon-ex-donnee-personnelle">
    <defs>
      <clipPath id="clip-path">
        <rect id="Rectangle_42" width="70.923" height="63.758" fill="none"></rect>
      </clipPath>
      <clipPath id="clip-path-2">
        <rect id="Rectangle_43" width="49.64" height="70.846" fill="none"></rect>
      </clipPath>
    </defs>
    <g id="icon_ex_donnee_personnelle" transform="translate(-379.773 -2034.231)">
      <circle id="Ellipse_2" cx="55" cy="55" r="55" transform="translate(393 2045)" fill="#fff"></circle>
      <g id="Groupe_122" transform="translate(-511.844 5.31)">
        <g id="Groupe_119" transform="translate(891.617 2061)">
          <g id="Groupe_118" transform="translate(0 0)" clip-path="url(#clip-path)">
            <path id="Tracé_236" d="M.011,26.687,23.368,2.278A5.056,5.056,0,0,1,28.376.905L60.922,9.964l7.487,27.274L6.66,50.908Z" transform="translate(0.01 0.68)" fill="#ea661c"></path>
            <rect id="Rectangle_41" width="52.291" height="45.19" transform="translate(1.945 13.844) rotate(-15.353)" fill="#fee6d2"></rect>
            <path id="Tracé_237" d="M2.069,8.209a.537.537,0,1,1,.661.375.539.539,0,0,1-.661-.375" transform="translate(1.937 7.113)" fill="#ecbf9a"></path>
            <path id="Tracé_238" d="M25.865,1.676a.537.537,0,1,1,.661.375.539.539,0,0,1-.661-.375" transform="translate(24.419 0.941)" fill="#ecbf9a"></path>
            <path id="Tracé_239" d="M48.628,1.356,2.35,14.062l-.031-.113L48.6,1.243Z" transform="translate(2.191 1.175)" fill="#ecbf9a"></path>
            <path id="Tracé_240" d="M14.975,54,2.269,7.723l.113-.031L15.087,53.97Z" transform="translate(2.144 7.267)" fill="#ecbf9a"></path>
            <path id="Tracé_241" d="M38.78,47.465,26.074,1.187l.113-.031L38.893,47.434Z" transform="translate(24.635 1.092)" fill="#ecbf9a"></path>
            <path id="Tracé_242" d="M60.911,5.435,70.923,41.9,10.012,58.623,0,22.158,35.461,32.03Z" transform="translate(0 5.135)" fill="#f28135"></path>
            <path id="Tracé_243" d="M5.148,47.041,27.556,19.38a4.549,4.549,0,0,1,5.113-1.4l33.39,12.342Z" transform="translate(4.864 16.717)" fill="#ea661c"></path>
            <path id="Tracé_244" d="M28.839,5.831,10.455,10.878a.5.5,0,1,1-.266-.97L28.573,4.861a.5.5,0,1,1,.266.97" transform="translate(9.275 4.575)" fill="#ecbf9a"></path>
            <path id="Tracé_245" d="M36.15,6.164,8.295,13.813a.5.5,0,1,1-.268-.972L35.884,5.194a.5.5,0,0,1,.266.97" transform="translate(7.234 4.89)" fill="#ecbf9a"></path>
            <path id="Tracé_246" d="M31.318,9.647,11.164,15.18a.364.364,0,1,1-.194-.7L31.126,8.945a.364.364,0,0,1,.193.7" transform="translate(10.112 8.439)" fill="#ecbf9a"></path>
            <path id="Tracé_247" d="M15.223,13.149l-5.683,1.56a.364.364,0,0,1-.193-.7l5.683-1.56a.364.364,0,1,1,.193.7" transform="translate(8.579 11.748)" fill="#ecbf9a"></path>
            <path id="Tracé_248" d="M20.205,11.939,13.34,13.824a.364.364,0,1,1-.193-.7l6.865-1.885a.364.364,0,1,1,.193.7" transform="translate(12.168 10.605)" fill="#ecbf9a"></path>
            <path id="Tracé_249" d="M29.433,10.073,17.563,13.333a.365.365,0,0,1-.193-.7L29.24,9.371a.364.364,0,0,1,.193.7" transform="translate(16.159 8.842)" fill="#ecbf9a"></path>
            <path id="Tracé_250" d="M22.557,13.03,11.518,16.06a.364.364,0,1,1-.194-.7l11.041-3.03a.364.364,0,0,1,.193.7" transform="translate(10.446 11.635)" fill="#ecbf9a"></path>
            <path id="Tracé_251" d="M26.516,11.63l-8.7,2.388a.365.365,0,0,1-.193-.7l8.7-2.386a.364.364,0,0,1,.193.7" transform="translate(16.402 10.313)" fill="#ecbf9a"></path>
            <path id="Tracé_252" d="M22.04,14.519a14.625,14.625,0,0,1-1.731,2.013,1.764,1.764,0,0,0-.056-.617c-.082-.249-.315-.305-.543-.354-.058-.014-.113-.027-.167-.043a.266.266,0,0,0-.016-.317.226.226,0,0,0-.4.128.612.612,0,0,0,0,.1.321.321,0,0,1-.1-.041c.06-.264.115-.529.154-.8a.134.134,0,0,0-.091-.136.426.426,0,0,0-.541.231.78.78,0,0,0,.156.741c.012.016.019.029.031.043q-.12.49-.284.965l-.066-.037a1.079,1.079,0,0,1-.189-.132,2.614,2.614,0,0,0-.031-.727.135.135,0,0,0-.22-.076.576.576,0,0,0-.183.694.734.734,0,0,0,.15.228,2.129,2.129,0,0,1-.1.4.125.125,0,0,0,.1.167,1.884,1.884,0,0,1-.175.838c-.107.2-.356.4-.591.261a.814.814,0,0,1-.278-.434,8.986,8.986,0,0,1-.377-1.161,1.884,1.884,0,0,1-.06-.57c.01-.121.019-.3.124-.126a1.043,1.043,0,0,1,.068.331.135.135,0,0,0,.264-.051c-.035-.2-.06-.632-.311-.694-.21-.051-.338.14-.385.315a3.592,3.592,0,0,0,.385,1.929c.163.463.5,1,1.066.679.529-.3.541-1.072.537-1.6a.125.125,0,0,0-.027-.082l0-.014c.029.018.06.035.091.051l.124.068c-.039.1-.078.2-.119.3a.139.139,0,0,0,.054.156.314.314,0,0,0,.467-.37.417.417,0,0,0-.091-.165c.109-.307.2-.62.284-.935a.422.422,0,0,0,.344.039l.027-.01a1.036,1.036,0,0,0,.272.109,1.448,1.448,0,0,1,.257.06c.15.066.146.191.159.34.014.2.006.4,0,.6a1.218,1.218,0,0,0-.426.805.672.672,0,0,0,.426.669.135.135,0,0,0,.175-.119c.047-.4.082-.8.089-1.208l0-.039c.194-.194.4-.375.593-.572a13.79,13.79,0,0,0,1.383-1.682c.1-.142-.126-.29-.224-.148m-3.238.517c-.029-.1-.027-.307.093-.336-.021.13-.047.261-.074.391l-.019-.054m1.151,2.9c-.167-.173-.08-.469.054-.683-.014.228-.033.455-.054.683" transform="translate(15.255 13.632)" fill="#f28135"></path>
          </g>
        </g>
        <g id="Groupe_121" transform="translate(973 2060.535)">
          <g id="Groupe_120" transform="translate(0 0)" clip-path="url(#clip-path-2)">
            <path id="Tracé_253" d="M28.146,70.668l-24.8-7.1A4.628,4.628,0,0,1,.178,57.86L15.788,3.343A4.628,4.628,0,0,1,21.494.178l24.8,7.1a4.628,4.628,0,0,1,3.166,5.706L33.852,67.5a4.628,4.628,0,0,1-5.706,3.165" transform="translate(0 0)" fill="#0d397a"></path>
            <path id="Tracé_254" d="M46.994,12.316,31.745,65.57a3.415,3.415,0,0,1-4.2,2.351L3.728,61.1a3.414,3.414,0,0,1-2.319-4.217L16.657,3.63a3.414,3.414,0,0,1,4.2-2.351L44.674,8.1a3.413,3.413,0,0,1,2.319,4.217" transform="translate(0.679 0.612)" fill="#b3cfee"></path>
            <path id="Tracé_255" d="M44.673,8.1,4.022,61.186,3.728,61.1a3.413,3.413,0,0,1-2.319-4.217L16.658,3.629a3.415,3.415,0,0,1,4.2-2.351Z" transform="translate(0.679 0.611)" fill="#bed9f3"></path>
            <path id="Tracé_256" d="M29.374,8.078,17.908,4.8a.748.748,0,0,1-.512-.924l.5-1.745a.749.749,0,0,1,.924-.512L30.284,4.9a.749.749,0,0,1,.513.924l-.5,1.745a.749.749,0,0,1-.924.512" transform="translate(9.238 0.844)" fill="#0d397a"></path>
            <path id="Tracé_257" d="M28.638,15.318,14.566,11.289a1.428,1.428,0,0,1-.979-1.765l.954-3.332A1.427,1.427,0,0,1,16.3,5.213l14.072,4.03a1.424,1.424,0,0,1,.979,1.763L30.4,14.339a1.424,1.424,0,0,1-1.763.979" transform="translate(7.198 2.744)" fill="#85b0df"></path>
            <path id="Tracé_258" d="M26.1,40.121,11.41,35.916a2.526,2.526,0,0,1-1.733-3.124l1.69-5.9a2.524,2.524,0,0,1,3.124-1.733l14.688,4.205a2.526,2.526,0,0,1,1.733,3.124l-1.69,5.9A2.526,2.526,0,0,1,26.1,40.121" transform="translate(5.095 13.33)" fill="#f28135"></path>
            <path id="Tracé_259" d="M16.635,15.628l-6.622-1.9a.23.23,0,0,1-.158-.285l.153-.536a.231.231,0,0,1,.285-.158l6.622,1.895a.231.231,0,0,1,.158.285l-.153.538a.232.232,0,0,1-.285.158" transform="translate(5.237 6.778)" fill="#fff"></path>
            <path id="Tracé_260" d="M15.871,17.771l-6.426-1.84a.332.332,0,1,1,.182-.639l6.426,1.84a.332.332,0,0,1-.182.639" transform="translate(4.895 8.127)" fill="#fff"></path>
            <path id="Tracé_261" d="M12.859,17.987,9,16.883a.15.15,0,0,1-.1-.185l.1-.351a.152.152,0,0,1,.187-.1l3.856,1.1a.152.152,0,0,1,.1.185l-.1.351a.15.15,0,0,1-.185.1" transform="translate(4.73 8.637)" fill="#fff"></path>
            <path id="Tracé_262" d="M18.588,19.629l-6.233-1.785a.15.15,0,0,1-.1-.185l.1-.351a.15.15,0,0,1,.185-.1L18.77,18.99a.152.152,0,0,1,.1.185l-.1.351a.15.15,0,0,1-.185.1" transform="translate(6.514 9.148)" fill="#fff"></path>
            <path id="Tracé_263" d="M23.175,19.863,14.75,17.45a.332.332,0,0,1,.182-.639l8.425,2.413a.332.332,0,0,1-.182.639" transform="translate(7.717 8.935)" fill="#fff"></path>
            <path id="Tracé_264" d="M15.306,19.745,8.88,17.905a.332.332,0,0,1,.182-.639l6.426,1.84a.332.332,0,0,1-.182.639" transform="translate(4.595 9.177)" fill="#fff"></path>
            <path id="Tracé_265" d="M22.61,21.837l-8.425-2.413a.332.332,0,0,1,.182-.639L22.792,21.2a.332.332,0,1,1-.182.639" transform="translate(7.417 9.985)" fill="#fff"></path>
            <path id="Tracé_266" d="M19.937,16.574,15.2,15.217a.231.231,0,0,1-.158-.285l.153-.538a.232.232,0,0,1,.285-.158l4.741,1.357a.231.231,0,0,1,.158.285l-.153.538a.232.232,0,0,1-.285.158" transform="translate(7.994 7.568)" fill="#fff"></path>
            <path id="Tracé_267" d="M20.364,8.183,15.655,6.835a.165.165,0,0,1-.112-.2l.11-.383a.164.164,0,0,1,.2-.112l4.708,1.348a.162.162,0,0,1,.112.2l-.109.383a.165.165,0,0,1-.2.112" transform="translate(8.264 3.262)" fill="#5389c8"></path>
            <path id="Tracé_268" d="M19.955,9.237,15.387,7.929a.236.236,0,1,1,.129-.453l4.57,1.308a.236.236,0,1,1-.13.453" transform="translate(8.093 3.971)" fill="#5389c8"></path>
            <path id="Tracé_269" d="M17.813,9.391,15.071,8.6A.107.107,0,0,1,15,8.473l.072-.248a.106.106,0,0,1,.132-.074l2.742.786a.107.107,0,0,1,.074.132l-.072.248a.106.106,0,0,1-.132.074" transform="translate(7.975 4.334)" fill="#5389c8"></path>
            <path id="Tracé_270" d="M21.887,10.558,17.455,9.289a.108.108,0,0,1-.074-.132l.072-.25a.107.107,0,0,1,.132-.074l4.432,1.27a.107.107,0,0,1,.074.132l-.072.248a.106.106,0,0,1-.132.074" transform="translate(9.243 4.697)" fill="#5389c8"></path>
            <path id="Tracé_271" d="M25.148,10.724,19.157,9.009a.236.236,0,0,1,.13-.453l5.991,1.716a.236.236,0,1,1-.13.453" transform="translate(10.099 4.546)" fill="#5389c8"></path>
            <path id="Tracé_272" d="M22.712,8.856,19.34,7.891a.165.165,0,0,1-.112-.2l.11-.383a.164.164,0,0,1,.2-.112l3.37.965a.162.162,0,0,1,.112.2l-.109.383a.165.165,0,0,1-.2.112" transform="translate(10.224 3.823)" fill="#5389c8"></path>
            <path id="Tracé_273" d="M17.474,28.653l-5.155-1.477a.177.177,0,0,1-.123-.221l.119-.418a.18.18,0,0,1,.222-.123l5.155,1.475a.182.182,0,0,1,.123.222l-.119.418a.18.18,0,0,1-.222.123" transform="translate(6.483 14.046)" fill="#ea661c"></path>
            <path id="Tracé_274" d="M17.026,29.806l-5-1.432a.258.258,0,1,1,.142-.5l5,1.432a.258.258,0,1,1-.142.5" transform="translate(6.296 14.823)" fill="#ea661c"></path>
            <path id="Tracé_275" d="M14.682,29.975l-3-.859a.117.117,0,0,1-.08-.144l.078-.273a.117.117,0,0,1,.144-.081l3,.859a.118.118,0,0,1,.08.146l-.078.273a.116.116,0,0,1-.144.08" transform="translate(6.167 15.219)" fill="#ea661c"></path>
            <path id="Tracé_276" d="M19.142,31.251,14.29,29.862a.116.116,0,0,1-.08-.144l.078-.273a.115.115,0,0,1,.144-.08l4.852,1.388a.118.118,0,0,1,.08.146l-.078.273a.116.116,0,0,1-.144.08" transform="translate(7.556 15.617)" fill="#ea661c"></path>
            <path id="Tracé_277" d="M22.711,31.434l-6.558-1.878a.258.258,0,1,1,.142-.5l6.558,1.878a.258.258,0,1,1-.142.5" transform="translate(8.492 15.451)" fill="#ea661c"></path>
            <path id="Tracé_278" d="M16.586,31.342l-5-1.432a.258.258,0,1,1,.142-.5l5,1.431a.259.259,0,0,1-.142.5" transform="translate(6.062 15.64)" fill="#ea661c"></path>
            <path id="Tracé_279" d="M22.272,32.97l-6.558-1.878a.258.258,0,1,1,.142-.5l6.558,1.877a.259.259,0,0,1-.142.5" transform="translate(8.258 16.268)" fill="#ea661c"></path>
            <path id="Tracé_280" d="M16.357,32.141l-5-1.432a.258.258,0,1,1,.142-.5l5,1.432a.258.258,0,1,1-.142.5" transform="translate(5.94 16.065)" fill="#ea661c"></path>
            <path id="Tracé_281" d="M22.043,33.77l-6.558-1.878a.258.258,0,1,1,.142-.5l6.558,1.878a.258.258,0,1,1-.142.5" transform="translate(8.137 16.694)" fill="#ea661c"></path>
            <path id="Tracé_282" d="M20.044,29.388l-3.69-1.057a.179.179,0,0,1-.123-.221l.118-.418a.182.182,0,0,1,.222-.124l3.692,1.057a.183.183,0,0,1,.123.222l-.121.418a.179.179,0,0,1-.221.123" transform="translate(8.63 14.66)" fill="#ea661c"></path>
            <path id="Tracé_283" d="M6.153,27.273a2.25,2.25,0,0,0,.293,1.875,2.392,2.392,0,0,0,.3.366,2.252,2.252,0,0,0,2.306.513A.54.54,0,0,0,9.119,30a2.2,2.2,0,0,0,.542-.3,2.255,2.255,0,1,0-3.508-2.436" transform="translate(3.225 13.637)" fill="#fff"></path>
            <path id="Tracé_284" d="M8.337,29.195l-.149-.234-.054,0a1.207,1.207,0,0,0-.095-.106c.035-.078.069-.15.1-.213a3.888,3.888,0,0,0,.147-.385c.107.025.182.034.182.034.213.011.418-.671.475-1.04a.273.273,0,0,0,.118.011c.17-.023.245-.25.245-.25a.278.278,0,0,1-.141.077s.354-.276.127-.6-.568-.251-.741-.29c-.381-.084-.63-.132-.823.08a1.422,1.422,0,0,0-.173,1.2c0,.023,0,.047-.008.07a.475.475,0,0,0,.029.245,1.6,1.6,0,0,1-.463.565,1.048,1.048,0,0,0-.26.158l0,0h0a2.286,2.286,0,0,0-.457.535l0,0a2.132,2.132,0,0,0,.334.331l.023.02.006,0,.04.031c.034.025.066.049.1.072s.072.046.109.067c.017.011.034.02.051.029s.031.017.046.025l.006,0,.031.015c.025.012.049.025.074.035l.017.008.04.018c.02.008.04.015.058.025l.067.025a.633.633,0,0,0,.064.021c.021.008.044.014.067.02s.049.014.074.02l.006,0,.018,0,.037.009h0c.023.006.046.011.069.015a2.278,2.278,0,0,0,.888-.014,2.381,2.381,0,0,0-.282-.645" transform="translate(3.399 13.896)" fill="#5389c8"></path>
            <path id="Tracé_285" d="M17.7,39.489a2.253,2.253,0,0,0,.072,1.461,2.3,2.3,0,0,0,.224.426,2.271,2.271,0,1,0-.3-1.887" transform="translate(9.367 20.128)" fill="#fff"></path>
            <path id="Tracé_286" d="M20.511,41.35l-.006-.02a.168.168,0,0,0-.025-.046.507.507,0,0,0-.09-.092l0,0a1.837,1.837,0,0,0-.407-.234c-.067-.032-.121-.055-.147-.066a1.084,1.084,0,0,1,0-.7l0,0s.135-.167.227-.077c.142.141.576-.139.611-.66a1.073,1.073,0,0,0,0-.156.33.33,0,0,0,.106.06c.1.028.317-.181.362-.259a.528.528,0,0,0-.009-.481.459.459,0,0,0-.352-.084c.093-.075.317.009.357.026-.5-.265-.711.047-.729.075-.253-.4-.924-.021-1.092.083l-.032.017a.426.426,0,0,0-.121.058.456.456,0,0,0-.169.259,1.057,1.057,0,0,0-.031.358c-.054.306-.074.7.061.749a1.166,1.166,0,0,0,.124.029l0,.011c-.012.051-.026.107-.041.162l-.011.034c-.041.15-.092.29-.13.3l-.031,0a.267.267,0,0,0-.04-.008c-.124-.018-.213-.031-.276-.038a.377.377,0,0,0-.195.006l-.026.017a1.391,1.391,0,0,0-.532.4,2.273,2.273,0,0,0,2.692.864,3,3,0,0,0-.041-.568" transform="translate(9.5 20.45)" fill="#f28135"></path>
            <path id="Tracé_287" d="M25.9,10.834a2.253,2.253,0,0,0,.072,1.461,2.3,2.3,0,0,0,.224.426,2.271,2.271,0,1,0-.3-1.887" transform="translate(13.731 4.887)" fill="#fff"></path>
            <path id="Tracé_288" d="M28.716,12.695l-.006-.02a.168.168,0,0,0-.025-.046.507.507,0,0,0-.09-.092l0,0a1.837,1.837,0,0,0-.407-.234c-.067-.032-.121-.055-.147-.066A.238.238,0,0,1,28,12.146a1.436,1.436,0,0,1,.034-.617l0,0s.135-.167.227-.077c.142.141.576-.139.611-.659a1.1,1.1,0,0,0,0-.158.33.33,0,0,0,.106.06c.1.028.317-.181.362-.259a.528.528,0,0,0-.009-.481.461.461,0,0,0-.354-.084c.095-.075.319.011.358.026-.5-.265-.711.047-.729.075-.253-.4-.924-.021-1.092.083l-.032.017a.4.4,0,0,0-.121.06.448.448,0,0,0-.169.257,1.058,1.058,0,0,0-.031.358c-.054.306-.074.7.061.749,0,0,.049.015.123.031l0,.009c-.012.051-.026.107-.041.164l-.011.034c-.041.149-.092.288-.13.3l-.031-.006-.04-.008c-.124-.018-.213-.031-.276-.038a.378.378,0,0,0-.195.006L26.6,12a1.4,1.4,0,0,0-.532.4c.015.023.031.046.049.069l.008.012c.012.017.025.034.038.051l.028.035.029.034a.465.465,0,0,0,.043.051l.031.034.038.04c.014.015.029.029.043.043l0,0,0,0h0l.006.006a.367.367,0,0,0,.035.034l0,0,.011.011.02.018.02.017.047.038c.015.012.032.026.047.037l.021.017.021.017.046.032.047.032.041.026,0,0,.026.017c.047.029.1.057.149.083l.066.032.018.008,0,0,0,0a.361.361,0,0,0,.043.018l.011,0,.006,0,.041.017.006,0,.014,0c.025.011.049.018.075.028l0,0,.025.008.014,0c.026.009.051.017.075.023a2.26,2.26,0,0,0,1.429-.058,3.007,3.007,0,0,0-.041-.568" transform="translate(13.864 5.209)" fill="#f28135"></path>
          </g>
        </g>
        <path id="Tracé_159" d="M45.122,15.653a14.079,14.079,0,0,1-2.276,7.827c-3.131,4.837-8.965,8.395-13.234,14.23-4.269-5.835-9.96-9.25-13.234-14.088a14.29,14.29,0,0,1-2.418-7.969,15.581,15.581,0,1,1,31.162,0m-6.973,0a8.715,8.715,0,0,0-8.679-8.68,8.808,8.808,0,0,0-8.68,8.68,8.68,8.68,0,0,0,17.359,0" transform="translate(940.019 2028.922)" fill="#ef727a"></path>
      </g>
    </g>
  </symbol>
  <symbol xmlns="http://www.w3.org/2000/svg" xmlns:xlink="http://www.w3.org/1999/xlink" viewBox="0 0 72.565 64.754" id="icon-temps-conservation-donnees">
    <defs>
      <clipPath id="clip-path">
        <rect id="Rectangle_92" width="54.886" height="64.754" fill="none"></rect>
      </clipPath>
      <clipPath id="clip-path-3">
        <rect id="Rectangle_90" width="48.302" height="48.302" fill="none"></rect>
      </clipPath>
    </defs>
    <g id="icon_temps_donnees" transform="translate(-300.657 -3423.811)">
      <path id="Tracé_369" d="M2.283,0A2.281,2.281,0,0,1,4.565,2.283,2.114,2.114,0,0,1,2.283,4.445,2.209,2.209,0,0,1,0,2.161,2.18,2.18,0,0,1,2.283,0" transform="translate(300.657 3429.365)" fill="#57606f"></path>
      <path id="Tracé_376" d="M2.283,0A2.281,2.281,0,0,1,4.565,2.283,2.114,2.114,0,0,1,2.283,4.445,2.209,2.209,0,0,1,0,2.161,2.18,2.18,0,0,1,2.283,0" transform="translate(368.657 3464.365)" fill="#57606f"></path>
      <path id="Tracé_370" d="M4.318,50.579a3,3,0,0,1,0,6.008,3,3,0,0,1,0-6.008" transform="translate(305.904 3429.855)" fill="#57606f"></path>
      <path id="Tracé_371" d="M55.985,0a1.589,1.589,0,0,1,1.562,1.561,1.591,1.591,0,0,1-1.562,1.563,1.7,1.7,0,0,1-1.561-1.682A1.489,1.489,0,0,1,55.985,0" transform="translate(299.867 3429.365)" fill="#57606f"></path>
      <path id="Tracé_377" d="M55.985,0a1.589,1.589,0,0,1,1.562,1.561,1.591,1.591,0,0,1-1.562,1.563,1.7,1.7,0,0,1-1.561-1.682A1.489,1.489,0,0,1,55.985,0" transform="translate(251.233 3473.877)" fill="#57606f"></path>
      <g id="Groupe_191" transform="translate(309.405 3423.811)">
        <g id="Groupe_190" clip-path="url(#clip-path)">
          <g id="Groupe_189" transform="translate(0 0)">
            <g id="Groupe_188" clip-path="url(#clip-path)">
              <path id="Rectangle_86" d="M1.883,0h1.73A1.882,1.882,0,0,1,5.495,1.882V3.036A1.881,1.881,0,0,1,3.613,4.917H1.882A1.882,1.882,0,0,1,0,3.035V1.883A1.883,1.883,0,0,1,1.883,0Z" transform="matrix(0.856, -0.518, 0.518, 0.856, 9.114, 12.126)" fill="#293045"></path>
              <path id="Rectangle_87" d="M1.883,0H3.035A1.882,1.882,0,0,1,4.917,1.882V3.613A1.882,1.882,0,0,1,3.035,5.494H1.882A1.882,1.882,0,0,1,0,3.612V1.883A1.883,1.883,0,0,1,1.883,0Z" transform="translate(40.307 14.163) rotate(-58.827)" fill="#293045"></path>
              <rect id="Rectangle_88" width="5.769" height="5.906" transform="translate(24.664 6.023)" fill="#181b27"></rect>
              <path id="Rectangle_89" d="M2.274,0H6.838A2.275,2.275,0,0,1,9.113,2.275v2.7A2.275,2.275,0,0,1,6.838,7.251H2.276A2.276,2.276,0,0,1,0,4.975v-2.7A2.274,2.274,0,0,1,2.274,0Z" transform="translate(22.992 0)" fill="#293045"></path>
              <path id="Tracé_372" d="M54.886,40.6A27.443,27.443,0,1,1,27.443,13.16,27.442,27.442,0,0,1,54.886,40.6" transform="translate(0 -3.291)" fill="#293045"></path>
              <g id="Groupe_187" transform="translate(3.394 13.161)">
                <g id="Groupe_186">
                  <g id="Groupe_185" clip-path="url(#clip-path-3)">
                    <path id="Tracé_373" d="M52.829,41.7A24.151,24.151,0,1,1,28.678,17.549,24.151,24.151,0,0,1,52.829,41.7" transform="translate(-4.527 -17.549)" fill="#d2d1d1"></path>
                  </g>
                </g>
              </g>
              <path id="Tracé_374" d="M50.935,42.584A21.506,21.506,0,1,1,29.429,21.079,21.5,21.5,0,0,1,50.935,42.584" transform="translate(-1.981 -5.271)" fill="#fff"></path>
              <path id="Tracé_375" d="M36.612,43.658H54.566A17.964,17.964,0,0,0,36.612,25.8Z" transform="translate(-9.156 -6.451)" fill="#293045"></path>
            </g>
          </g>
        </g>
      </g>
    </g>
  </symbol>
  <symbol xmlns="http://www.w3.org/2000/svg" viewBox="0 0 125 100.742" id="icon-liste-vos-droits">
    <g id="icon_vos_droits" transform="translate(-745 -4938)">
      <ellipse id="Ellipse_10" cx="50.04" cy="50.371" rx="50.04" ry="50.371" transform="translate(757.716 4938)" fill="#ecf2fa"></ellipse>
      <g id="Groupe_129" transform="translate(745 4938.256)">
        <path id="Tracé_310" d="M61.653,20.771h-.235L42.364-15.519H44.6v-5.223H39.055v1.306H5v-1.906H-6.7v1.906H-43.19v-1.306h-5.553v5.223h2.5l-16.879,36.29h-.223c2.376,10.894,10.249,14.981,18.6,14.981a18.821,18.821,0,0,0,8.655-1.938c4.335-2.206,7.806-6.4,9.949-13.043h-.237l-19.058-36.29h2.244v-1.63H-6.7v2.887h4.027V61.993H-6.742v4.462H-9.236v4.681H-34.247v6.626H32.469V71.135H7.454V66.454H4.963V61.993H.887V-14.262H5v-2.887H39.055v1.63h2.494L24.67,20.771h-.225c2.378,10.894,10.249,14.981,18.6,14.981A18.8,18.8,0,0,0,51.7,33.815c4.341-2.206,7.808-6.4,9.949-13.043m-106.6,0H-61.887L-45.8-13.808l18.162,34.579Zm70.854,0,16.08-34.579,18.16,34.579H25.911Z" transform="translate(63.347 21.342)" fill="#002f66"></path>
      </g>
    </g>
  </symbol>
  <symbol id="icon-temps-lecture" xmlns="http://www.w3.org/2000/svg" xmlns:xlink="http://www.w3.org/1999/xlink" viewBox="0 0 15.686 15.532">
    <defs>
      <clipPath id="clip-path">
        <rect id="Rectangle_1" width="15.686" height="15.532" fill="none"></rect>
      </clipPath>
    </defs>
    <g id="Groupe_1" clip-path="url(#clip-path)">
      <path id="Tracé_2" d="M7.829,0a7.82,7.82,0,0,1,7.857,7.779,7.8,7.8,0,0,1-7.857,7.752A7.766,7.766,0,1,1,7.829,0" fill="#ecf0f1"></path>
      <path id="Tracé_3" d="M28.026,2.026a.359.359,0,0,0,.355-.351V0h-.709V1.675a.379.379,0,0,0,.354.351" transform="translate(-20.197)" fill="#ef727a"></path>
      <path id="Tracé_4" d="M28.026,50a.359.359,0,0,0-.354.351v1.675h.709v-1.7A.337.337,0,0,0,28.026,50" transform="translate(-20.197 -36.494)" fill="#ef727a"></path>
      <path id="Tracé_5" d="M43.858,9.175a.408.408,0,0,0,.246.108.335.335,0,0,0,.246-.108l1.2-1.189L45.058,7.5l-1.2,1.189a.34.34,0,0,0,0,.486" transform="translate(-31.936 -5.474)" fill="#ef727a"></path>
      <path id="Tracé_6" d="M9.265,43.426a.348.348,0,0,0-.491,0l-1.2,1.189.491.486,1.2-1.189a.34.34,0,0,0,0-.486" transform="translate(-5.528 -31.622)" fill="#ef727a"></path>
      <path id="Tracé_7" d="M52.442,27.5H50.75a.351.351,0,1,0,0,.7h1.691v-.7Z" transform="translate(-36.783 -20.072)" fill="#ef727a"></path>
      <path id="Tracé_8" d="M2.046,27.751a.359.359,0,0,0-.354-.351H0v.7H1.691a.359.359,0,0,0,.354-.351" transform="translate(0 -19.999)" fill="#ef727a"></path>
      <path id="Tracé_9" d="M43.858,43.426a.34.34,0,0,0,0,.486l1.2,1.189.491-.486-1.2-1.189a.348.348,0,0,0-.491,0" transform="translate(-31.936 -31.622)" fill="#ef727a"></path>
      <path id="Tracé_10" d="M9.021,9.183a.335.335,0,0,0,.246-.108.34.34,0,0,0,0-.486L8.066,7.4l-.491.486,1.2,1.189a.336.336,0,0,0,.246.108" transform="translate(-5.529 -5.401)" fill="#ef727a"></path>
      <path id="Tracé_11" d="M19.179,19.855a.352.352,0,0,1-.273-.567l2.319-2.944V12.751a.355.355,0,0,1,.709,0v3.728a.357.357,0,0,1-.082.216l-2.4,3.053a.421.421,0,0,1-.273.108" transform="translate(-13.75 -9.051)" fill="#3c3b3d"></path>
    </g>
  </symbol>
</svg>