<svg width="0" height="0" class="hidden">
  <symbol xmlns="http://www.w3.org/2000/svg" viewBox="0 0 82.22 78.748" id="icon-comment-utilisons-cookies">
    <g id="icon-comment-utilisons-cookies" transform="translate(-144.78 -1093.252)">
      <circle id="Ellipse_1" cx="39" cy="39" r="39" transform="translate(149 1094)" fill="#ecf2fa"></circle>
      <g id="icon_Cookies" transform="translate(155.407 1100.684)">
        <g id="bulles" transform="translate(-3.63 0)">
          <path id="Tracé_164" d="M8.061,3.844a3,3,0,1,1-3,3,2.975,2.975,0,0,1,3-3" transform="translate(-5.051 5.721)" fill="#74829c"></path>
          <path id="Tracé_165" d="M54.3,1.315a3.724,3.724,0,1,1-3.724,3.724A3.744,3.744,0,0,1,54.3,1.315" transform="translate(9.489 0.246)" fill="#74829c"></path>
          <path id="Tracé_172" d="M57.2,32.877a1.562,1.562,0,1,1-1.561,1.562A1.59,1.59,0,0,1,57.2,32.877" transform="translate(16.438 8.168)" fill="#d7deed"></path>
          <path id="Tracé_173" d="M57.2,36.721a1.562,1.562,0,1,1,0,3.123,1.7,1.7,0,0,1-1.561-1.682A1.489,1.489,0,0,1,57.2,36.721" transform="translate(10.438 15.889)" fill="#d7deed"></path>
          <path id="Tracé_175" d="M47.084,6.373a1.562,1.562,0,0,1,0,3.123,1.7,1.7,0,0,1-1.562-1.682,1.49,1.49,0,0,1,1.562-1.442" transform="translate(8.54 -13.805)" fill="#74829c"></path>
          <path id="Tracé_176" d="M39.5,1.315a1.589,1.589,0,0,1,1.561,1.562,1.562,1.562,0,0,1-3.123,0A1.515,1.515,0,0,1,39.5,1.315" transform="translate(12.117 -0.754)" fill="#74829c"></path>
          <path id="Tracé_181" d="M16.736,0A1.59,1.59,0,0,1,18.3,1.562a1.562,1.562,0,1,1-3.123,0A1.59,1.59,0,0,1,16.736,0" transform="translate(3.847 -5)" fill="#74829c"></path>
          <path id="Tracé_182" d="M4.091,29.134a1.562,1.562,0,1,1,0,3.123,1.562,1.562,0,1,1,0-3.123" transform="translate(-9.526 5.465)" fill="#d7deed"></path>
        </g>
        <path id="Tracé_229" d="M31.033,2.28h0A31.031,31.031,0,1,0,45.74,60.639L31.033,33.312Z" transform="translate(0 0.291)" fill="#514e78"></path>
        <path id="Tracé_230" d="M61.32,31.031A31.03,31.03,0,0,0,30.29,0V31.032l.05.1,30.93,1.6c.029-.562.05-1.124.05-1.693" transform="translate(3.867 0)" fill="#fab217"></path>
        <path id="Tracé_231" d="M30.334,29.885,44.99,57.116A31.025,31.025,0,0,0,61.262,31.479Z" transform="translate(3.872 3.814)" fill="#f05757"></path>
      </g>
    </g>
  </symbol>
  <symbol xmlns="http://www.w3.org/2000/svg" viewBox="0 0 78 78" id="icon-droits-donnees">
    <g id="icon-droits-donnees" transform="translate(-149 -1094)">
      <circle id="Ellipse_1" cx="39" cy="39" r="39" transform="translate(149 1094)" fill="#ecf2fa"></circle>
      <g id="icon_droit_donnees" transform="translate(151.777 1100.683)">
        <rect id="Rectangle_29" width="6.007" height="28.233" transform="translate(54.061 25.828)" fill="#d7deed"></rect>
        <rect id="Rectangle_30" width="6.007" height="28.233" transform="translate(33.038 25.828)" fill="#d7deed"></rect>
        <rect id="Rectangle_31" width="6.007" height="28.233" transform="translate(12.014 25.828)" fill="#d7deed"></rect>
        <g id="Groupe_102" transform="translate(0 0)">
          <g id="Groupe_111">
            <path id="Tracé_164" d="M8.061,3.844a3,3,0,1,1-3,3,2.975,2.975,0,0,1,3-3" transform="translate(0.949 0.721)" fill="#74829c"></path>
            <path id="Tracé_165" d="M54.3,1.315a3.724,3.724,0,1,1-3.724,3.724A3.744,3.744,0,0,1,54.3,1.315" transform="translate(9.489 0.246)" fill="#74829c"></path>
            <path id="Tracé_166" d="M63.439,45.42v4.565H6.373V45.42H63.439Z" transform="translate(1.196 8.521)" fill="#747371"></path>
            <path id="Tracé_167" d="M19.6,19.018v4.445H7.587V19.018Z" transform="translate(1.423 3.568)" fill="#afb9d2"></path>
            <path id="Tracé_168" d="M37.3,19.018v4.445H25.289V19.018Z" transform="translate(4.744 3.568)" fill="#afb9d2"></path>
            <path id="Tracé_169" d="M55.006,19.018v4.445H42.992V19.018Z" transform="translate(8.066 3.568)" fill="#afb9d2"></path>
            <path id="Tracé_170" d="M58.645,29.134H7.587V41.148H61.648V29.134Z" transform="translate(1.423 5.465)" fill="#f14742"></path>
            <path id="Tracé_171" d="M57.2,29.134a1.562,1.562,0,1,1,0,3.123,1.7,1.7,0,0,1-1.561-1.682A1.489,1.489,0,0,1,57.2,29.134" transform="translate(10.438 5.465)" fill="#d7deed"></path>
            <path id="Tracé_172" d="M57.2,32.877a1.562,1.562,0,1,1-1.561,1.562A1.59,1.59,0,0,1,57.2,32.877" transform="translate(10.438 6.168)" fill="#d7deed"></path>
            <path id="Tracé_173" d="M57.2,36.721a1.562,1.562,0,1,1,0,3.123,1.7,1.7,0,0,1-1.561-1.682A1.489,1.489,0,0,1,57.2,36.721" transform="translate(10.438 6.889)" fill="#d7deed"></path>
            <path id="Tracé_174" d="M57.2,40.463a1.562,1.562,0,1,1-1.561,1.562A1.59,1.59,0,0,1,57.2,40.463" transform="translate(10.438 7.591)" fill="#d7deed"></path>
            <path id="Tracé_175" d="M47.084,6.373a1.562,1.562,0,0,1,0,3.123,1.7,1.7,0,0,1-1.562-1.682,1.49,1.49,0,0,1,1.562-1.442" transform="translate(8.54 1.195)" fill="#74829c"></path>
            <path id="Tracé_176" d="M39.5,1.315a1.589,1.589,0,0,1,1.561,1.562,1.562,1.562,0,0,1-3.123,0A1.515,1.515,0,0,1,39.5,1.315" transform="translate(7.117 0.246)" fill="#74829c"></path>
            <g id="Groupe_112" transform="translate(8.935)">
              <path id="Tracé_177" d="M42.461,35.583a2.227,2.227,0,0,0,1.082-2.043,2.282,2.282,0,0,0-2.284-2.283H38.136v6.848H39.7V35.943h1.2l1.322,2.163h1.8Zm-.6-1.322a.623.623,0,0,1-.48.24H39.939V32.58h1.442a.623.623,0,0,1,.48.24,1.009,1.009,0,0,1,.241.721c-.12.36-.12.6-.241.721" transform="translate(-24.913 5.864)" fill="#fff"></path>
              <path id="Tracé_178" d="M36.114,31.5a2.271,2.271,0,0,0-.962-.24H32.27v6.848h1.561V35.943h1.443a1.735,1.735,0,0,0,.841-.24,2.419,2.419,0,0,0,1.081-3,3.265,3.265,0,0,0-1.081-1.2m-.48,2.764a.632.632,0,0,1-.482.24H33.831V32.58h1.443c.239.12.361.24.361.48,0,.12.119.241.119.361,0,.48,0,.721-.119.841" transform="translate(-3.047 5.864)" fill="#fff"></path>
              <path id="Tracé_179" d="M29.153,31.5a4.49,4.49,0,0,0-1.442-.24H25.189v6.848h2.522a3.188,3.188,0,0,0,3.364-3.484,4.327,4.327,0,0,0-.241-1.322,3.079,3.079,0,0,0-1.682-1.8m-1.442,5.286h-.961V32.7h.961c1.2,0,1.8.841,1.8,2.042a1.833,1.833,0,0,1-1.8,2.043" transform="translate(10.034 5.864)" fill="#fff"></path>
              <path id="Tracé_180" d="M21.413,34.482v1.2h1.322v.24a2.1,2.1,0,0,1-1.683.841,1.526,1.526,0,0,1-.721-.12,2.249,2.249,0,0,1,0-3.844,1.873,1.873,0,0,1,2.4.841l1.2-.841a2.745,2.745,0,0,0-2.764-1.442,3.354,3.354,0,0,0-2.4.961,3.555,3.555,0,0,0,0,4.926,3.281,3.281,0,0,0,2.283.961,2.446,2.446,0,0,0,1.8-.721v.721h1.322V34.6a23.008,23.008,0,0,0-2.764-.121" transform="translate(3.446 5.883)" fill="#fff"></path>
            </g>
            <path id="Tracé_181" d="M16.736,0A1.59,1.59,0,0,1,18.3,1.562a1.562,1.562,0,1,1-3.123,0A1.59,1.59,0,0,1,16.736,0" transform="translate(2.847 0)" fill="#74829c"></path>
            <path id="Tracé_182" d="M4.091,29.134a1.562,1.562,0,1,1,0,3.123,1.562,1.562,0,1,1,0-3.123" transform="translate(0.474 5.465)" fill="#d7deed"></path>
            <path id="Tracé_183" d="M4.091,32.877a1.562,1.562,0,0,1,0,3.123,1.562,1.562,0,0,1,0-3.123" transform="translate(0.474 6.168)" fill="#d7deed"></path>
            <path id="Tracé_184" d="M4.091,36.721a1.562,1.562,0,0,1,0,3.123,1.562,1.562,0,0,1,0-3.123" transform="translate(0.474 6.889)" fill="#d7deed"></path>
            <path id="Tracé_185" d="M4.091,40.463a1.562,1.562,0,1,1,0,3.123,1.562,1.562,0,1,1,0-3.123" transform="translate(0.474 7.591)" fill="#d7deed"></path>
            <path id="Tracé_186" d="M35.194,5.26C29.067,8.024,4.8,20.036,1.315,21.719H69.193c-1.321-.6-32.317-15.738-34-16.459" transform="translate(0.247 0.986)" fill="#747371"></path>
            <path id="Tracé_187" d="M30.1,11.431a2.281,2.281,0,0,1,2.283,2.283,2.283,2.283,0,1,1-4.565,0A2.209,2.209,0,0,1,30.1,11.431" transform="translate(5.219 2.144)" fill="#d8f2f1"></path>
            <path id="Tracé_188" d="M66.916,48.961v4.565H3.844V48.961H66.916Z" transform="translate(0.721 9.185)" fill="#5b5a57"></path>
            <path id="Tracé_189" d="M70.64,54.916H1.561a1.562,1.562,0,0,1,0-3.123H70.64A1.59,1.59,0,0,1,72.2,53.355a1.783,1.783,0,0,1-1.562,1.562" transform="translate(0 9.716)" fill="#3c3b3d"></path>
          </g>
        </g>
      </g>
    </g>
  </symbol>
  <symbol xmlns="http://www.w3.org/2000/svg" xmlns:xlink="http://www.w3.org/1999/xlink" viewBox="0 0 78 78" id="icon-donnees-collectees-et-protection">
    <defs>
      <clipPath id="clip-path">
        <rect id="Rectangle_5" width="64.633" height="60.069" fill="none"></rect>
      </clipPath>
    </defs>
    <g id="icon-donnees-collectees-et-protection" transform="translate(-149 -1094)">
      <circle id="Ellipse_1" cx="39" cy="39" r="39" transform="translate(149 1094)" fill="#ecf2fa"></circle>
      <g id="Groupe_164" transform="translate(155.683 1102.515)">
        <g id="Groupe_14" transform="translate(0 0)" clip-path="url(#clip-path)">
          <path id="Tracé_52" d="M43.995,17.546v7.569H37.987V17.546a9.026,9.026,0,0,0-9.01-9.01,9.078,9.078,0,0,0-9.01,9.01v7.569H13.959V17.546A15.024,15.024,0,0,1,28.976,2.529,14.49,14.49,0,0,1,39.55,6.974a14.494,14.494,0,0,1,4.445,10.572" transform="translate(2.619 0.475)" fill="#747371"></path>
          <path id="Tracé_53" d="M16.123,54.832a5.949,5.949,0,0,1-6.007-6.007V20.232H49.281V48.825a5.949,5.949,0,0,1-6.007,6.007Z" transform="translate(1.898 3.796)" fill="#313a52"></path>
          <path id="Tracé_54" d="M5.532,10.116a3,3,0,0,1,0,6.007,3,3,0,0,1,0-6.007" transform="translate(0.474 1.898)" fill="#74829c"></path>
          <path id="Tracé_55" d="M52.369,40.464a3,3,0,1,1-3,3,2.975,2.975,0,0,1,3-3" transform="translate(9.261 7.592)" fill="#74829c"></path>
          <path id="Tracé_56" d="M50.086,5.058a4.565,4.565,0,1,1-4.565,4.565,4.565,4.565,0,0,1,4.565-4.565" transform="translate(8.54 0.949)" fill="#74829c"></path>
          <path id="Tracé_57" d="M13.1,25.29a2.3,2.3,0,0,1,1.683,3.844,2.289,2.289,0,0,1-1.562.6H8.656a2.3,2.3,0,0,1-1.682-3.844,2.282,2.282,0,0,1,1.562-.6H13.1Z" transform="translate(1.196 4.745)" fill="#afb9d2"></path>
          <path id="Tracé_58" d="M13.12,32.877A2.3,2.3,0,0,1,14.8,36.721a3.018,3.018,0,0,1-1.683.721H8.555A2.3,2.3,0,0,1,6.873,33.6,2.282,2.282,0,0,1,8.435,33H13.12Z" transform="translate(1.177 6.168)" fill="#afb9d2"></path>
          <path id="Tracé_59" d="M46,32.877a2.281,2.281,0,0,1,2.283,2.283,1.935,1.935,0,0,1-.721,1.562,2.284,2.284,0,0,1-1.562.6H41.432a2.226,2.226,0,1,1-.12-4.445H46Z" transform="translate(7.345 6.168)" fill="#afb9d2"></path>
          <path id="Tracé_60" d="M46,25.29a2.281,2.281,0,0,1,2.283,2.283,1.935,1.935,0,0,1-.721,1.562,2.289,2.289,0,0,1-1.562.6H41.432a2.226,2.226,0,1,1-.12-4.445H46Z" transform="translate(7.345 4.745)" fill="#afb9d2"></path>
          <path id="Tracé_61" d="M38.468,31.075,28.136,29.032,17.8,31.075c0,15.5-.48,13.815,7.57,21.985H30.78c8.29-8.409,7.689-6.127,7.689-21.985" transform="translate(3.339 5.447)" fill="#80af52"></path>
          <path id="Tracé_62" d="M52.142,19.018A1.562,1.562,0,1,1,50.58,20.58a1.514,1.514,0,0,1,1.562-1.562" transform="translate(9.489 3.568)" fill="#74829c"></path>
          <path id="Tracé_63" d="M50.826,34.192a1.562,1.562,0,1,1-1.562,1.562,1.59,1.59,0,0,1,1.562-1.562" transform="translate(9.242 6.415)" fill="#74829c"></path>
          <path id="Tracé_64" d="M42.025,0a1.59,1.59,0,0,1,1.562,1.562,1.562,1.562,0,1,1-3.123,0A1.59,1.59,0,0,1,42.025,0" transform="translate(7.591 0)" fill="#74829c"></path>
          <path id="Tracé_65" d="M29.178,32.978a1.562,1.562,0,1,1-1.562,1.562,1.59,1.59,0,0,1,1.562-1.562" transform="translate(5.181 6.187)" fill="#70993f"></path>
          <path id="Tracé_66" d="M11.678,1.315a1.59,1.59,0,0,1,1.562,1.562,1.562,1.562,0,0,1-3.123,0,1.514,1.514,0,0,1,1.562-1.562" transform="translate(1.898 0.247)" fill="#74829c"></path>
          <path id="Tracé_67" d="M1.562,22.761a1.562,1.562,0,0,1,0,3.123,1.562,1.562,0,0,1,0-3.123" transform="translate(0 4.271)" fill="#74829c"></path>
          <path id="Tracé_68" d="M1.562,40.464a1.562,1.562,0,0,1,0,3.123,1.562,1.562,0,0,1,0-3.123" transform="translate(0 7.592)" fill="#74829c"></path>
          <path id="Tracé_69" d="M26.549,45.822a1.47,1.47,0,0,1-1.082-.48L22.224,42.1a1.529,1.529,0,0,1,2.163-2.161l2.283,2.281L32.2,36.691a1.529,1.529,0,1,1,2.163,2.163l-6.607,6.608a2.694,2.694,0,0,1-1.2.36" transform="translate(4.085 6.799)" fill="#fff"></path>
          <path id="Tracé_70" d="M25.909,36h-3a1.562,1.562,0,1,1,0-3.123h3a1.59,1.59,0,0,1,1.562,1.562A1.679,1.679,0,0,1,25.909,36" transform="translate(4.004 6.168)" fill="#70993f"></path>
          <path id="Tracé_71" d="M56.363,51.073H5.3a1.562,1.562,0,0,1,0-3.123H56.363a1.562,1.562,0,1,1,0,3.123" transform="translate(0.702 8.996)" fill="#3c3b3d"></path>
        </g>
      </g>
    </g>
  </symbol>
  <symbol xmlns="http://www.w3.org/2000/svg" xmlns:xlink="http://www.w3.org/1999/xlink" viewBox="0 0 78 78" id="icon-glossaire">
    <defs>
      <clipPath id="clip-path">
        <rect id="Rectangle_85" width="55.202" height="45.193" fill="none"></rect>
      </clipPath>
    </defs>
    <g id="icon-glossaire" transform="translate(-149 -1094)">
      <circle id="Ellipse_1" cx="39" cy="39" r="39" transform="translate(149 1094)" fill="#ecf2fa"></circle>
      <g id="Groupe_178" transform="translate(160.399 1110.404)">
        <rect id="Rectangle_81" width="27.6" height="41.266" transform="translate(0 3.927)" fill="#235982"></rect>
        <rect id="Rectangle_82" width="26.002" height="39.279" transform="translate(1.598 4.443)" fill="#a4d8e6"></rect>
        <rect id="Rectangle_83" width="27.601" height="41.266" transform="translate(27.6 3.927)" fill="#10354f"></rect>
        <rect id="Rectangle_84" width="26.002" height="39.279" transform="translate(27.601 4.443)" fill="#5fb0cf"></rect>
        <g id="Groupe_177" transform="translate(0 0)">
          <g id="Groupe_176" clip-path="url(#clip-path)">
            <path id="Tracé_353" d="M15.9,0C6,0,2.881,3.821,2.881,3.821v39.2S6,39.2,15.9,39.2s12.242,3.819,12.242,3.819V3.821S25.8,0,15.9,0" transform="translate(-0.539 0)" fill="#e6f2f0"></path>
            <path id="Tracé_354" d="M46.188,0C56.088,0,59.2,3.821,59.2,3.821v39.2S56.088,39.2,46.188,39.2s-12.243,3.819-12.243,3.819V3.821S36.287,0,46.188,0" transform="translate(-6.345 0)" fill="#cfe8dd"></path>
            <path id="Tracé_355" d="M25.944,9.533V7.463a38.926,38.926,0,0,0-18.671,0v2.07a36.218,36.218,0,0,1,18.671,0" transform="translate(-1.36 -1.183)" fill="#fff"></path>
            <path id="Tracé_356" d="M7.273,12.437V14.5a36.2,36.2,0,0,1,18.671,0V12.437a38.886,38.886,0,0,0-18.671,0" transform="translate(-1.36 -2.112)" fill="#fff"></path>
            <path id="Tracé_357" d="M7.273,17.41v2.068a36.218,36.218,0,0,1,18.671,0V17.41a38.886,38.886,0,0,0-18.671,0" transform="translate(-1.36 -3.042)" fill="#fff"></path>
            <path id="Tracé_358" d="M7.273,22.383v2.07a36.183,36.183,0,0,1,18.671,0v-2.07a38.886,38.886,0,0,0-18.671,0" transform="translate(-1.36 -3.971)" fill="#fff"></path>
            <path id="Tracé_359" d="M7.273,27.358v2.068a36.2,36.2,0,0,1,18.671,0V27.358a38.886,38.886,0,0,0-18.671,0" transform="translate(-1.36 -4.901)" fill="#fff"></path>
            <path id="Tracé_360" d="M7.273,32.33V34.4a36.271,36.271,0,0,1,18.671,0V32.33a38.926,38.926,0,0,0-18.671,0" transform="translate(-1.36 -5.831)" fill="#fff"></path>
            <path id="Tracé_361" d="M7.273,37.3v2.068a36.218,36.218,0,0,1,18.671,0V37.3a38.886,38.886,0,0,0-18.671,0" transform="translate(-1.36 -6.761)" fill="#fff"></path>
            <path id="Tracé_362" d="M7.273,42.276v2.069a36.218,36.218,0,0,1,18.671,0V42.276a38.906,38.906,0,0,0-18.671,0" transform="translate(-1.36 -7.69)" fill="#fff"></path>
            <path id="Tracé_363" d="M26.878.855V26.45l1.738-1.4,1.791,1.4V2.177A14.316,14.316,0,0,0,26.878.855" transform="translate(-5.024 -0.16)" fill="#ffd35c"></path>
            <path id="Tracé_364" d="M50.1,17.294a1.323,1.323,0,0,1,1.315,1.3A1.2,1.2,0,0,1,50.1,19.834,1.287,1.287,0,0,1,48.812,18.6a1.3,1.3,0,0,1,1.292-1.3" transform="translate(-9.124 -3.233)" fill="#ad1800"></path>
            <path id="Tracé_365" d="M50.1,21.986a1.323,1.323,0,0,1,1.315,1.3A1.2,1.2,0,0,1,50.1,24.525a1.287,1.287,0,0,1-1.292-1.235,1.3,1.3,0,0,1,1.292-1.3" transform="translate(-9.124 -4.11)" fill="#ad1800"></path>
            <path id="Tracé_366" d="M50.1,26.679a1.323,1.323,0,0,1,1.315,1.3A1.2,1.2,0,0,1,50.1,29.218a1.287,1.287,0,0,1-1.292-1.236,1.3,1.3,0,0,1,1.292-1.3" transform="translate(-9.124 -4.987)" fill="#ad1800"></path>
            <path id="Tracé_367" d="M49.318,12.692v-1.5h1.087l-.241-.778H47.821l-.241.778h.894v1.5H44.835v-1.5h.778l1.544-5.022h-.468V4.694H51.08l2.025,6.5h.8v1.5Zm.424-3.651-.755-2.469-.743,2.469Z" transform="translate(-8.381 -0.877)" fill="#ad1800"></path>
            <path id="Tracé_368" d="M45.811,32.568h7.5l.023,1.522-4.185,4.963h2.126V37.589H53.3v2.974h-7.56V39.076l4.163-4.986H47.757v1.486H45.811Z" transform="translate(-8.551 -6.088)" fill="#ad1800"></path>
          </g>
        </g>
      </g>
    </g>
  </symbol>
  <symbol xmlns="http://www.w3.org/2000/svg" xmlns:xlink="http://www.w3.org/1999/xlink" viewBox="0 0 78 78" id="icon-registre-traitements-donnees">
    <defs>
      <clipPath id="clip-path">
        <rect id="Rectangle_8" width="71.574" height="71.439" fill="none"></rect>
      </clipPath>
    </defs>
    <g id="icon-registre-traitements-donnees" transform="translate(-149 -1094)">
      <circle id="Ellipse_1" cx="39" cy="39" r="39" transform="translate(149 1094)" fill="#ecf2fa"></circle>
      <g id="icon_registre" transform="translate(155.426 1099.418)">
        <rect id="Rectangle_6" width="60.736" height="30.989" transform="translate(0 30.989)" fill="#febe76"></rect>
        <g id="Groupe_17" transform="translate(0 0)">
          <g id="Groupe_16" clip-path="url(#clip-path)">
            <path id="Tracé_72" d="M40.9,0H5.058V17.175h9.334L20.615,21.9H51.73V10.952C48,7.218,44.635,3.734,40.9,0" transform="translate(1.165 0)" fill="#fff"></path>
            <path id="Tracé_73" d="M34.192,0,45.143,10.952H34.192Z" transform="translate(7.875 0)" fill="#bec3c7"></path>
            <path id="Tracé_74" d="M54.1,3.642a3.111,3.111,0,1,1-3.111,3.111A3.081,3.081,0,0,1,54.1,3.642" transform="translate(11.743 0.838)" fill="#74829c"></path>
            <path id="Tracé_75" d="M13.8,54.221a2.365,2.365,0,1,1-2.366,2.365A2.363,2.363,0,0,1,13.8,54.221" transform="translate(2.633 12.488)" fill="#74829c"></path>
            <rect id="Rectangle_7" width="18.669" height="6.223" transform="translate(35.844 37.212)" fill="#313a52"></rect>
            <path id="Tracé_76" d="M60.736,18.565V27.9H0V13.96H15.558l6.223,4.605H60.736Z" transform="translate(0 3.215)" fill="#e8a664"></path>
            <path id="Tracé_77" d="M62.176,39.848l-10.7-2.115h-.249L40.769,39.848c0,7.22-.125,10.828.621,13.441.871,3.113,2.739,4.731,7.343,9.46H54.21c8.589-8.962,7.966-6.473,7.966-22.9" transform="translate(9.388 8.69)" fill="#80af52"></path>
            <path id="Tracé_78" d="M53.817,25.188A1.618,1.618,0,1,1,52.2,26.806a1.647,1.647,0,0,1,1.619-1.618" transform="translate(12.022 5.801)" fill="#74829c"></path>
            <path id="Tracé_79" d="M52.2,41.576a1.618,1.618,0,1,1-1.618,1.618A1.647,1.647,0,0,1,52.2,41.576" transform="translate(11.65 9.575)" fill="#70993f"></path>
            <path id="Tracé_80" d="M50.074,11.229a1.618,1.618,0,1,1-1.619,1.618,1.647,1.647,0,0,1,1.619-1.618" transform="translate(11.16 2.586)" fill="#74829c"></path>
            <path id="Tracé_81" d="M46.23,1.315a1.646,1.646,0,0,1,1.617,1.618,1.617,1.617,0,1,1-3.235,0A1.648,1.648,0,0,1,46.23,1.315" transform="translate(10.275 0.302)" fill="#74829c"></path>
            <path id="Tracé_82" d="M24.379,3.844A1.648,1.648,0,0,1,26,5.462a1.618,1.618,0,0,1-3.237,0,1.57,1.57,0,0,1,1.619-1.618" transform="translate(5.242 0.885)" fill="#65b2fe"></path>
            <path id="Tracé_83" d="M49.685,54.865a1.516,1.516,0,0,1-1.12-.5L45.2,51.007a1.585,1.585,0,0,1,2.242-2.24l2.365,2.365,5.725-5.725a1.584,1.584,0,1,1,2.239,2.24L50.93,54.491a2.775,2.775,0,0,1-1.245.374" transform="translate(10.304 10.35)" fill="#fff"></path>
            <path id="Tracé_84" d="M48.936,44.711H45.825a1.618,1.618,0,0,1,0-3.236h3.111a1.648,1.648,0,0,1,1.618,1.618,1.568,1.568,0,0,1-1.618,1.618" transform="translate(10.182 9.552)" fill="#70993f"></path>
            <path id="Tracé_85" d="M39.587,47.24H5.362a1.618,1.618,0,1,1,0-3.236H39.587a1.648,1.648,0,0,1,1.618,1.618,1.569,1.569,0,0,1-1.618,1.618" transform="translate(0.862 10.135)" fill="#e8a664"></path>
            <path id="Tracé_86" d="M30.253,43.5H5.362a1.618,1.618,0,1,1,0-3.236H30.253a1.618,1.618,0,1,1,0,3.236" transform="translate(0.862 9.272)" fill="#e8a664"></path>
            <path id="Tracé_87" d="M22.536,39.653H5.361a1.618,1.618,0,1,1,0-3.236H22.536a1.618,1.618,0,1,1,0,3.236" transform="translate(0.862 8.387)" fill="#e8a664"></path>
            <path id="Tracé_88" d="M22.562,6.979H11.61a1.544,1.544,0,0,1-1.494-1.618A1.629,1.629,0,0,1,11.61,3.743H22.562a1.646,1.646,0,0,1,1.617,1.618,1.646,1.646,0,0,1-1.617,1.618" transform="translate(2.33 0.862)" fill="#65b2fe"></path>
            <path id="Tracé_89" d="M28.2,10.722H14.263a1.618,1.618,0,0,1,0-3.236H28.328A1.646,1.646,0,0,1,29.945,9.1,1.753,1.753,0,0,1,28.2,10.722" transform="translate(2.912 1.724)" fill="#65b2fe"></path>
            <path id="Tracé_90" d="M33.26,14.566H19.322a1.618,1.618,0,1,1,0-3.236H33.386A1.648,1.648,0,0,1,35,12.948a1.762,1.762,0,0,1-1.743,1.618" transform="translate(4.077 2.609)" fill="#65b2fe"></path>
          </g>
        </g>
      </g>
    </g>
  </symbol>
  <symbol xmlns="http://www.w3.org/2000/svg" xmlns:xlink="http://www.w3.org/1999/xlink" viewBox="0 0 66 67.717" id="icon-vos-droits-form-en-ligne">
    <defs>
      <clipPath id="clip-path">
        <rect id="Rectangle_74" width="44.964" height="67.717" fill="none"></rect>
      </clipPath>
    </defs>
    <g id="icon_form_en_ligne" transform="translate(-1438 -6145.283)">
      <circle id="Ellipse_14" cx="33" cy="33" r="33" transform="translate(1438 6146)" fill="#ecf2fa"></circle>
      <g id="Groupe_133" transform="translate(1448.518 6145.28)">
        <g id="Groupe_132" transform="translate(0 0.003)" clip-path="url(#clip-path)">
          <path id="Tracé_314" d="M41.72,200.043H3.244A3.244,3.244,0,0,1,0,196.8V141.607a3.244,3.244,0,0,1,3.244-3.243H41.72a3.244,3.244,0,0,1,3.244,3.243V196.8a3.244,3.244,0,0,1-3.244,3.244" transform="translate(0 -132.326)" fill="#a9bae6"></path>
          <rect id="Rectangle_53" width="37.008" height="53.759" transform="translate(4.064 8.524)" fill="#f6f5f5"></rect>
          <path id="Tracé_315" d="M130.118,195.329c.012,20.963.688,46.246-1.666,51.844-10.372,1.011-22.516,1.335-35.342,1.4l4.875-53.077Z" transform="translate(-89.046 -186.805)" fill="#e4e4e4"></path>
          <path id="Tracé_316" d="M81.9,245.532c-16.166,2.587-26.971,2.724-35.734,2.073,1.136-12.088,1.591-32.17,2.049-52.22l19.48.043,17.631,1.164c.257,20.81.285,40.032-3.426,48.94" transform="translate(-44.147 -186.859)" fill="#fff"></path>
          <rect id="Rectangle_54" width="2.966" height="19.474" transform="translate(12.498 16.447) rotate(-88.652)" fill="#708cd5"></rect>
          <rect id="Rectangle_55" width="1.358" height="17.565" transform="matrix(0.024, -1, 1, 0.024, 18.197, 22.141)" fill="#708cd5"></rect>
          <rect id="Rectangle_56" width="1.358" height="11.94" transform="translate(18.127 25.1) rotate(-88.652)" fill="#d3dfff"></rect>
          <rect id="Rectangle_57" width="4.158" height="4.158" transform="translate(8.44 24.792) rotate(-88.652)" fill="#fff"></rect>
          <rect id="Rectangle_58" width="4.158" height="4.158" transform="translate(8.44 24.792) rotate(-88.652)" fill="none" stroke="#708cd5" stroke-miterlimit="10" stroke-width="6"></rect>
          <path id="Tracé_317" d="M210.99,444c.128.491.365,2.55,1.4,1.974a3.138,3.138,0,0,0,.617-.685l.959-1.089,1.918-2.177c.164-.186-.56-.653-.765-.419l-1.7,1.935-.852.968c-.2.224-.653.946-.946,1.01l.477.154c.112.092-.1-.562-.1-.579l-.238-.911c-.066-.251-.857-.552-.76-.181" transform="translate(-201.774 -422.268)" fill="#ee6f57"></path>
          <rect id="Rectangle_59" width="1.358" height="14.465" transform="translate(18.019 29.699) rotate(-88.652)" fill="#708cd5"></rect>
          <rect id="Rectangle_60" width="1.358" height="17.565" transform="matrix(0.024, -1, 1, 0.024, 17.949, 32.658)" fill="#d3dfff"></rect>
          <rect id="Rectangle_61" width="4.158" height="4.158" transform="translate(8.262 32.35) rotate(-88.652)" fill="#fff"></rect>
          <rect id="Rectangle_62" width="4.158" height="4.158" transform="translate(8.262 32.35) rotate(-88.652)" fill="none" stroke="#708cd5" stroke-miterlimit="10" stroke-width="6"></rect>
          <path id="Tracé_318" d="M206.851,619.875c.128.491.365,2.55,1.4,1.974a3.138,3.138,0,0,0,.617-.685l.959-1.089,1.918-2.177c.164-.186-.56-.653-.765-.419l-1.7,1.935-.852.968c-.2.224-.653.946-.946,1.01l.477.154c.112.092-.1-.562-.1-.579l-.238-.911c-.066-.251-.857-.552-.76-.181" transform="translate(-197.816 -590.471)" fill="#ee6f57"></path>
          <rect id="Rectangle_63" width="1.358" height="17.565" transform="matrix(0.024, -1, 1, 0.024, 17.841, 37.257)" fill="#708cd5"></rect>
          <rect id="Rectangle_64" width="1.358" height="7.856" transform="matrix(0.024, -1, 1, 0.024, 17.771, 40.216)" fill="#d3dfff"></rect>
          <rect id="Rectangle_65" width="4.158" height="4.158" transform="translate(8.084 39.908) rotate(-88.652)" fill="#fff"></rect>
          <rect id="Rectangle_66" width="4.158" height="4.158" transform="translate(8.084 39.908) rotate(-88.652)" fill="none" stroke="#708cd5" stroke-miterlimit="10" stroke-width="6"></rect>
          <path id="Tracé_319" d="M204.068,794.3c.128.491.365,2.55,1.4,1.974a3.139,3.139,0,0,0,.617-.685l.959-1.089,1.918-2.177c.164-.186-.56-.653-.765-.419l-1.7,1.935-.852.968c-.2.224-.653.946-.946,1.01l.477.154c.112.092-.1-.562-.1-.579l-.238-.911c-.066-.251-.857-.552-.76-.181" transform="translate(-195.154 -757.281)" fill="#ee6f57"></path>
          <rect id="Rectangle_67" width="1.358" height="17.565" transform="matrix(0.024, -1, 1, 0.024, 17.663, 44.815)" fill="#708cd5"></rect>
          <rect id="Rectangle_68" width="1.358" height="13.876" transform="translate(17.593 47.774) rotate(-88.652)" fill="#d3dfff"></rect>
          <rect id="Rectangle_69" width="4.158" height="4.158" transform="translate(7.906 47.466) rotate(-88.652)" fill="#fff"></rect>
          <rect id="Rectangle_70" width="4.158" height="4.158" transform="translate(7.906 47.466) rotate(-88.652)" fill="none" stroke="#708cd5" stroke-miterlimit="10" stroke-width="6"></rect>
          <path id="Tracé_320" d="M200.018,966.351c.128.491.365,2.55,1.4,1.974a3.14,3.14,0,0,0,.617-.685l.959-1.089,1.918-2.177c.164-.186-.56-.653-.765-.419l-1.7,1.935-.852.968c-.2.224-.653.946-.946,1.01l.477.154c.112.092-.1-.562-.1-.579l-.238-.911c-.065-.251-.857-.552-.76-.181" transform="translate(-191.281 -921.827)" fill="#ee6f57"></path>
          <rect id="Rectangle_71" width="1.358" height="6.963" transform="matrix(0.024, -1, 1, 0.024, 17.486, 52.316)" fill="#708cd5"></rect>
          <path id="Tracé_321" d="M416.694,1235.931l-17.561-.413-.032,1.357c6.794.159,15.445.478,17.21.207a1.524,1.524,0,0,0,.383-1.151" transform="translate(-381.684 -1181.6)" fill="#d3dfff"></path>
          <rect id="Rectangle_72" width="4.158" height="4.158" transform="translate(7.788 54.969) rotate(-88.652)" fill="#fff"></rect>
          <rect id="Rectangle_73" width="4.158" height="4.158" transform="translate(7.788 54.969) rotate(-88.652)" fill="none" stroke="#708cd5" stroke-miterlimit="10" stroke-width="6"></rect>
          <path id="Tracé_322" d="M196,1136.9c.128.491.365,2.55,1.4,1.974a3.134,3.134,0,0,0,.617-.685l.959-1.089,1.918-2.177c.164-.186-.56-.653-.765-.419l-1.7,1.935-.852.968c-.2.224-.653.946-.946,1.01l.477.154c.112.092-.1-.562-.1-.579l-.238-.911c-.066-.251-.857-.552-.76-.181" transform="translate(-187.442 -1084.933)" fill="#ee6f57"></path>
          <path id="Tracé_323" d="M340.829,6.415v4.149h-16.67V6.415a2.4,2.4,0,0,1,.7-1.695,1.981,1.981,0,0,1,.169-.152,2.379,2.379,0,0,1,1.526-.55,2.823,2.823,0,0,0,1.225-.279,2.942,2.942,0,0,0,.461-.278,2.821,2.821,0,0,0,1.023-1.451A2.833,2.833,0,0,1,331.974,0h1.04a2.833,2.833,0,0,1,2.709,2.007,2.821,2.821,0,0,0,1.023,1.451,2.941,2.941,0,0,0,.461.278,2.823,2.823,0,0,0,1.225.279,2.4,2.4,0,0,1,2.4,2.4" transform="translate(-310.013 -0.003)" fill="#ee6f57"></path>
          <path id="Tracé_324" d="M312.536,195.323v3.084H293.159v-3.084h1.353v2.037h16.67v-2.037Z" transform="translate(-280.366 -186.799)" fill="#e4e4e4"></path>
          <path id="Tracé_325" d="M484.239,26.2a1.481,1.481,0,1,1-1.479-1.405,1.443,1.443,0,0,1,1.479,1.405" transform="translate(-460.279 -23.711)" fill="#fff"></path>
        </g>
      </g>
    </g>
  </symbol>
  <symbol xmlns="http://www.w3.org/2000/svg" viewBox="0 0 78 78" id="icon-une-donnee-personnelle">
    <g id="icon-une-donnee-personnelle" transform="translate(-149 -1094)">
      <circle id="Ellipse_1" cx="39" cy="39" r="39" transform="translate(149 1094)" fill="#ecf2fa"></circle>
      <g id="icon_donnee_personnelle" transform="translate(154 1101)">
        <path id="Tracé_14" d="M61.023,5.159H7.322a6.262,6.262,0,0,0-6.006,6.367V42.4a6.409,6.409,0,0,0,6.367,6.368h53.7A6.262,6.262,0,0,0,67.39,42.4V11.526a6.332,6.332,0,0,0-6.367-6.367" transform="translate(0.247 0.967)" fill="#fff"></path>
        <path id="Tracé_15" d="M8.162,49.467a3,3,0,1,1-3,3,2.973,2.973,0,0,1,3-3" transform="translate(0.968 9.28)" fill="#74829c"></path>
        <path id="Tracé_16" d="M27.078,48.151a3,3,0,1,1-3,3,2.974,2.974,0,0,1,3-3" transform="translate(4.517 9.033)" fill="#74829c"></path>
        <path id="Tracé_17" d="M55.14,35.02,44.808,32.977,34.6,35.02V43.55c.24,6.847,1.442,7.208,7.687,13.574H47.57c6.367-6.607,7.449-6.728,7.57-13.574Z" transform="translate(6.491 6.186)" fill="#80af52"></path>
        <path id="Tracé_18" d="M14.063,16.691a7.743,7.743,0,0,1,7.689,7.689,6.55,6.55,0,0,1-.6,2.642H6.974a6.119,6.119,0,0,1-.6-2.642,7.743,7.743,0,0,1,7.69-7.689" transform="translate(1.196 3.131)" fill="#313a52"></path>
        <path id="Tracé_19" d="M13.455,10.217a3.845,3.845,0,1,1-3.844,3.844,3.953,3.953,0,0,1,3.844-3.844" transform="translate(1.803 1.916)" fill="#ffd8a8"></path>
        <path id="Tracé_20" d="M55.985,48.151a1.562,1.562,0,1,1-1.561,1.562,1.59,1.59,0,0,1,1.561-1.562" transform="translate(10.21 9.033)" fill="#74829c"></path>
        <path id="Tracé_21" d="M45.87,36.821a1.562,1.562,0,1,1-1.562,1.562,1.589,1.589,0,0,1,1.562-1.562" transform="translate(8.313 6.907)" fill="#70993f"></path>
        <path id="Tracé_22" d="M38.283,24.177a1.562,1.562,0,1,1-1.562,1.563,1.515,1.515,0,0,1,1.562-1.563" transform="translate(6.889 4.535)" fill="#65b2fe"></path>
        <path id="Tracé_23" d="M20.58,45.622a1.562,1.562,0,1,1-1.563,1.562,1.59,1.59,0,0,1,1.563-1.562" transform="translate(3.568 8.559)" fill="#74829c"></path>
        <path id="Tracé_24" d="M1.562,45.622a1.562,1.562,0,0,1,0,3.125A1.591,1.591,0,0,1,0,47.184a1.679,1.679,0,0,1,1.562-1.562" transform="translate(0 8.559)" fill="#74829c"></path>
        <path id="Tracé_25" d="M39.34,12.026H24.323a1.562,1.562,0,0,1,0-3.125H39.34a1.562,1.562,0,0,1,0,3.125" transform="translate(4.27 1.669)" fill="#65b2fe"></path>
        <path id="Tracé_26" d="M55.919,15.767h-31.6a1.562,1.562,0,1,1,0-3.123h31.6a1.562,1.562,0,0,1,0,3.123" transform="translate(4.27 2.372)" fill="#65b2fe"></path>
        <path id="Tracé_27" d="M55.919,19.612h-31.6a1.562,1.562,0,1,1,0-3.123h31.6a1.59,1.59,0,0,1,1.562,1.562,1.679,1.679,0,0,1-1.562,1.562" transform="translate(4.27 3.093)" fill="#65b2fe"></path>
        <path id="Tracé_28" d="M45.346,23.356H24.323a1.562,1.562,0,1,1,0-3.125H45.346a1.591,1.591,0,0,1,1.562,1.563,1.514,1.514,0,0,1-1.562,1.562" transform="translate(4.27 3.795)" fill="#65b2fe"></path>
        <path id="Tracé_29" d="M36.336,27.2H24.323a1.562,1.562,0,1,1,0-3.123H36.336a1.562,1.562,0,0,1,0,3.123" transform="translate(4.27 4.516)" fill="#65b2fe"></path>
        <path id="Tracé_30" d="M43.242,49.767a1.472,1.472,0,0,1-1.082-.481l-3.245-3.245a1.529,1.529,0,0,1,2.164-2.161l2.283,2.283,5.526-5.527A1.53,1.53,0,0,1,51.05,42.8l-6.607,6.607a2.7,2.7,0,0,1-1.2.361" transform="translate(7.216 7.539)" fill="#fff"></path>
        <path id="Tracé_31" d="M42.5,39.844h-3a1.562,1.562,0,1,1,0-3.123h3a1.562,1.562,0,0,1,0,3.123" transform="translate(7.117 6.889)" fill="#70993f"></path>
        <path id="Tracé_32" d="M60.682,3.123H6.621A1.589,1.589,0,0,1,5.059,1.563,1.59,1.59,0,0,1,6.621,0H60.682a1.59,1.59,0,0,1,1.561,1.563,1.59,1.59,0,0,1-1.561,1.561" transform="translate(0.949 0)" fill="#d7deed"></path>
      </g>
    </g>
  </symbol>
  <symbol xmlns="http://www.w3.org/2000/svg" viewBox="0 0 103 66" id="icon-vos-droits-courriel">
    <g id="icon_courriel" transform="translate(-960 -6146)">
      <circle id="Ellipse_12" cx="33" cy="33" r="33" transform="translate(978 6146)" fill="#ecf2fa"></circle>
      <g id="Groupe_134" transform="translate(960 6155.03)">
        <path id="Tracé_326" d="M20.518,8.009l4,8.762L13.805,28.644l1.721,8.53L72.4,4.944Z" transform="translate(30.601 10.958)" fill="#9ec1e8"></path>
        <path id="Tracé_327" d="M43.4,15.867,0,46.013,103,4.943Z" transform="translate(0 10.957)" fill="#fff"></path>
        <path id="Tracé_328" d="M15.15,0l2.387,18.968L69.417,15.9Z" transform="translate(33.581)" fill="#fff"></path>
      </g>
    </g>
  </symbol>
  <symbol xmlns="http://www.w3.org/2000/svg" viewBox="0 0 66 66" id="icon-vos-droits-courier">
    <g id="icon_courier" transform="translate(-470 -6146)">
      <circle id="Ellipse_13" cx="33" cy="33" r="33" transform="translate(470 6146)" fill="#ecf2fa"></circle>
      <g id="Groupe_131" transform="translate(477 6162)">
        <rect id="Rectangle_52" width="51.429" height="33.569" transform="translate(0 0)" fill="#f58a28"></rect>
        <path id="Tracé_312" d="M51.429,0,25.715,22.81,0,0,25.715,27.46Z" fill="#f05a28"></path>
        <path id="Tracé_313" d="M0,0,25.715,22.81,51.429,0Z" fill="#fab217"></path>
      </g>
    </g>
  </symbol>
  <symbol xmlns="http://www.w3.org/2000/svg" viewBox="0 0 78.036 78" id="icon-comment-exercer-droits">
    <g id="icon-comment-exercer-droits" transform="translate(-149 -1094)">
      <circle id="Ellipse_1" cx="39" cy="39" r="39" transform="translate(149 1094)" fill="#ecf2fa"></circle>
      <g id="Groupe_114" transform="translate(161.76 1100.683)">
        <g id="Groupe_115">
          <path id="Tracé_214" d="M58.7,50.31v2.81a2.838,2.838,0,0,1-5.676,0V50.31a3.214,3.214,0,0,1,.795-2.023,2.751,2.751,0,0,1,2.044-.787A2.87,2.87,0,0,1,58.7,50.31" transform="translate(6.578 5.893)" fill="#5b5a57"></path>
          <path id="Tracé_215" d="M58.7,5.31V8.12a2.838,2.838,0,0,1-5.676,0V5.31a3.214,3.214,0,0,1,.795-2.023A2.589,2.589,0,0,1,55.859,2.5,2.87,2.87,0,0,1,58.7,5.31" transform="translate(6.578 0.31)" fill="#5b5a57"></path>
          <path id="Tracé_216" d="M5.676,5.31V8.12a2.8,2.8,0,0,1-2.838,2.81A2.8,2.8,0,0,1,0,8.12V5.31A2.8,2.8,0,0,1,2.838,2.5a3.282,3.282,0,0,1,2.044.787A2.536,2.536,0,0,1,5.676,5.31" transform="translate(0 0.31)" fill="#5b5a57"></path>
          <path id="Tracé_217" d="M5.676,50.31v2.81a2.8,2.8,0,0,1-2.838,2.81A2.8,2.8,0,0,1,0,53.12V50.31A2.8,2.8,0,0,1,2.838,47.5a3.282,3.282,0,0,1,2.044.787,2.98,2.98,0,0,1,.795,2.023" transform="translate(0 5.893)" fill="#5b5a57"></path>
          <path id="Tracé_218" d="M53.647,50.62v5.62a2.838,2.838,0,0,1-5.676,0V47.81a3.214,3.214,0,0,1,.795-2.023A2.751,2.751,0,0,1,50.809,45a2.8,2.8,0,0,1,2.838,2.81Z" transform="translate(5.951 5.582)" fill="#5b5a57"></path>
          <path id="Tracé_219" d="M10.725,47.81v8.43a2.8,2.8,0,0,1-2.838,2.81,2.8,2.8,0,0,1-2.837-2.81V47.81A2.8,2.8,0,0,1,7.887,45a3.282,3.282,0,0,1,2.044.787,2.98,2.98,0,0,1,.795,2.023" transform="translate(0.626 5.582)" fill="#5b5a57"></path>
          <path id="Tracé_220" d="M10.725,2.81v8.43a2.8,2.8,0,0,1-2.838,2.81,2.8,2.8,0,0,1-2.837-2.81V2.81A2.8,2.8,0,0,1,7.887,0,3.282,3.282,0,0,1,9.931.787a2.98,2.98,0,0,1,.795,2.023" transform="translate(0.626)" fill="#5b5a57"></path>
          <path id="Tracé_221" d="M53.647,5.62v5.62a2.838,2.838,0,0,1-5.676,0V2.81A3.214,3.214,0,0,1,48.766.787,2.589,2.589,0,0,1,50.809,0a2.8,2.8,0,0,1,2.838,2.81Z" transform="translate(5.951 0)" fill="#5b5a57"></path>
          <path id="Tracé_222" d="M52.67,47.5v8.43H10.1V47.5H52.67Z" transform="translate(1.253 5.893)" fill="#747371"></path>
          <path id="Tracé_223" d="M52.67,2.5v8.43H10.1V2.5Z" transform="translate(1.253 0.31)" fill="#747371"></path>
          <rect id="Rectangle_38" width="36.895" height="42.152" transform="translate(14.19 11.241)" fill="#fff"></rect>
          <path id="Tracé_224" d="M30.25,20.323a1.461,1.461,0,1,0,0-2.923H20.261a1.461,1.461,0,1,0,0,2.923Z" transform="translate(2.33 2.159)" fill="#bec3c7"></path>
          <path id="Tracé_225" d="M23.936,23.861a1.5,1.5,0,0,0,1.476,1.461H35.4a1.461,1.461,0,1,0,0-2.923H25.412a1.578,1.578,0,0,0-1.476,1.461" transform="translate(2.969 2.779)" fill="#bec3c7"></path>
          <path id="Tracé_226" d="M32.926,28.861A1.5,1.5,0,0,0,31.45,27.4H21.574a1.461,1.461,0,1,0,0,2.923h9.989a1.478,1.478,0,0,0,1.362-1.461" transform="translate(2.493 3.399)" fill="#bec3c7"></path>
          <path id="Tracé_227" d="M36.613,32.5H26.624a1.461,1.461,0,1,0,0,2.923h9.989a1.5,1.5,0,0,0,1.476-1.461A1.579,1.579,0,0,0,36.613,32.5" transform="translate(3.12 4.032)" fill="#bec3c7"></path>
          <path id="Tracé_228" d="M34.088,37.5H24.1a1.461,1.461,0,1,0,0,2.923h9.989a1.5,1.5,0,0,0,1.476-1.461A1.579,1.579,0,0,0,34.088,37.5" transform="translate(2.807 4.652)" fill="#bec3c7"></path>
        </g>
      </g>
    </g>
  </symbol>
</svg>