<svg xmlns="http://www.w3.org/2000/svg" width="86" height="63.734" data-name="Groupe 152">
  <defs>
    <clipPath id="a">
      <path fill="none" d="M0 0h86v63.735H0z" data-name="Rectangle 78"/>
    </clipPath>
    <clipPath id="b">
      <path fill="none" d="M0 0h86v63.734H0z" data-name="Rectangle 77"/>
    </clipPath>
    <clipPath id="c">
      <path fill="none" d="M0 0h55.024v61.164H0z" data-name="Rectangle 75"/>
    </clipPath>
    <clipPath id="d">
      <path fill="none" d="M0 0h9.803v15.377H0z" data-name="Rectangle 76"/>
    </clipPath>
  </defs>
  <g clip-path="url(#a)" data-name="Groupe 151">
    <g data-name="Groupe 150">
      <g clip-path="url(#b)" data-name="Groupe 149">
        <path fill="#ffb5d9" d="M3.679 34.105a1.839 1.839 0 1 1-1.839-1.839 1.839 1.839 0 0 1 1.839 1.839" data-name="Tracé 329"/>
        <path fill="#ffb5d9" d="M86 34.105a1.839 1.839 0 1 1-1.839-1.839A1.839 1.839 0 0 1 86 34.105" data-name="Tracé 330"/>
        <path fill="#bc9350" d="m73.246 21.096-1.576.45-.077.945a9.88 9.88 0 0 1-.881.569 8.689 8.689 0 0 1-8.254-.09l-1.576.45.334.555a7.924 7.924 0 0 1-7.974.907 7.284 7.284 0 0 1-4.377-5.492c-2.91.983-5.955 1.068-8.414-1.417-2.742-2.77-2.3-6-.724-8.887a5.808 5.808 0 0 1-4.706-3.649 6.523 6.523 0 0 1-.344-3.318 31.272 31.272 0 1 0 38.569 18.977" data-name="Tracé 331"/>
        <path fill="#cea65f" d="M73.629 32.456a31.156 31.156 0 0 1-7.533 20.354c-.054.064-.113.127-.171.191a31.271 31.271 0 0 1-54.853-20.545c0-.3 0-.6.014-.9A31.334 31.334 0 0 1 33.101 2.569a6.539 6.539 0 0 0 .346 3.317 5.29 5.29 0 0 0 1.815 2.449 7.163 7.163 0 0 0 2.888 1.2c-1.581 2.884-2.02 6.119.722 8.889 2.459 2.483 5.508 2.4 8.416 1.415a7.281 7.281 0 0 0 4.377 5.494c3.381 1.513 6.757.406 9.216-1.912a8.692 8.692 0 0 0 8.255.088 12.036 12.036 0 0 0 2.536-1.962 31.21 31.21 0 0 1 1.956 10.909" data-name="Tracé 332"/>
        <path fill="#9e6235" d="M29.259 40.589a6.423 6.423 0 1 1-6.424-6.424 6.424 6.424 0 0 1 6.424 6.424" data-name="Tracé 333"/>
        <path fill="#9e6235" d="M36.772 50.562a3.239 3.239 0 1 1-3.24-3.239 3.238 3.238 0 0 1 3.239 3.239" data-name="Tracé 334"/>
        <path fill="#9e6235" d="M38.219 34.167a2.641 2.641 0 1 1-2.641-2.641 2.641 2.641 0 0 1 2.641 2.641" data-name="Tracé 335"/>
        <path fill="#9e6235" d="M62.454 39.45a2.753 2.753 0 1 1-2.753-2.753 2.753 2.753 0 0 1 2.753 2.753" data-name="Tracé 336"/>
        <path fill="#9e6235" d="M67.15 42.211a1.619 1.619 0 1 1-1.62-1.62 1.62 1.62 0 0 1 1.62 1.62" data-name="Tracé 337"/>
        <g data-name="Groupe 145" style="mix-blend-mode:color-burn;isolation:isolate">
          <g data-name="Groupe 144">
            <g clip-path="url(#c)" data-name="Groupe 143" transform="translate(11.073 2.571)">
              <path fill="#d9d9d9" d="M25.829 48.306a31.515 31.515 0 0 1-13.83-29.378A30.664 30.664 0 0 1 22.016.097c0-.032.006-.065.012-.1a31.281 31.281 0 1 0 33 50.24c-9.245 4.2-20.667 3.7-29.194-1.932" data-name="Tracé 338"/>
            </g>
          </g>
        </g>
        <g data-name="Groupe 148" opacity=".42" style="mix-blend-mode:color-dodge;isolation:isolate">
          <g data-name="Groupe 147">
            <g clip-path="url(#d)" data-name="Groupe 146" transform="translate(60.629 23.329)">
              <path fill="#9c9b9b" d="M8.815 0q-.155.1-.309.182A8.738 8.738 0 0 1 .383.17a19.313 19.313 0 0 0-.329 5.343c.4 5.636 2.9 10.05 5.578 9.859s4.519-4.917 4.115-10.553A19.715 19.715 0 0 0 8.815 0" data-name="Tracé 339"/>
            </g>
          </g>
        </g>
        <path fill="#9e6235" d="M35.262 8.335a3.856 3.856 0 0 1-.883 1.6 4.027 4.027 0 0 1-4.635.825 4.67 4.67 0 0 0-1.23-.561c-1.322-.229-2.24 1.3-3.488 1.786a2.892 2.892 0 0 1-3.439-1.459 3.45 3.45 0 0 1-.357-1.132A31.3 31.3 0 0 1 33.1 2.569a6.533 6.533 0 0 0 .35 3.317 5.285 5.285 0 0 0 1.815 2.449" data-name="Tracé 340"/>
        <path fill="#9e6235" d="M15.163 28.651a9.97 9.97 0 0 1-4.079 2.9 31.087 31.087 0 0 1 3.513-13.539 7 7 0 0 1 2.391 4.166 8.214 8.214 0 0 1-1.825 6.473" data-name="Tracé 341"/>
        <path fill="#9e6235" d="M65.925 53.001a31.278 31.278 0 0 1-10.5 7.879 10.306 10.306 0 0 1-2.088-1.849 5.645 5.645 0 0 1-1.317-2.371 2.992 2.992 0 0 1 .527-2.586c.751-.883 2.049-1.122 2.849-1.961a20.8 20.8 0 0 0 1.371-2.274 4.1 4.1 0 0 1 3.864-1.469 6.262 6.262 0 0 1 3.669 2.152A11.335 11.335 0 0 1 65.925 53" data-name="Tracé 342"/>
        <path fill="#cea65f" d="M66.515 16.616a2.334 2.334 0 1 1-2.335-2.335 2.335 2.335 0 0 1 2.335 2.335" data-name="Tracé 343"/>
        <path fill="#cea65f" d="M60.181 12.88a1.4 1.4 0 1 1-1.4-1.4 1.4 1.4 0 0 1 1.4 1.4" data-name="Tracé 344"/>
        <path fill="#cea65f" d="M57.917 20.183a.847.847 0 1 1-.847-.847.847.847 0 0 1 .847.847" data-name="Tracé 345"/>
        <path fill="#cea65f" d="M48.395 4.082a2.234 2.234 0 1 1-2.234-2.234 2.234 2.234 0 0 1 2.234 2.234" data-name="Tracé 346"/>
        <path fill="#cea65f" d="M44.813 10.515a1.04 1.04 0 1 1-1.04-1.04 1.04 1.04 0 0 1 1.04 1.04" data-name="Tracé 347"/>
        <path fill="#cea65f" d="M55.221 1.54A1.541 1.541 0 1 1 53.679 0a1.541 1.541 0 0 1 1.542 1.54" data-name="Tracé 348"/>
      </g>
    </g>
  </g>
</svg>
